<svg width="40" height="40" viewBox="0 0 40 40" fill="none" xmlns="http://www.w3.org/2000/svg">
<circle cx="20" cy="20" r="20" fill="#F1FBFF"/>
<g clip-path="url(#clip0_189_74)">
<path d="M34.5 11L30.5 12L33.5 22.5L37.5 21L34.5 11Z" fill="#90FEE4"/>
<path d="M6 11L11 12.5L7 22.5L3 21L6 11Z" fill="#90FEE4"/>
<path d="M33.4298 23.21C33.297 23.2098 33.1679 23.1655 33.063 23.084C32.958 23.0026 32.883 22.8886 32.8498 22.76L29.9998 12.31C29.9596 12.1547 29.9811 11.9898 30.0598 11.85C30.0989 11.7804 30.1519 11.7196 30.2156 11.6714C30.2793 11.6232 30.3522 11.5887 30.4298 11.57L34.8098 10.39C34.9649 10.3502 35.1295 10.373 35.2679 10.4534C35.4063 10.5339 35.5076 10.6655 35.5498 10.82L38.3698 21.29C38.3926 21.3666 38.3991 21.4471 38.3887 21.5264C38.3784 21.6056 38.3515 21.6818 38.3098 21.75C38.2278 21.8901 38.0955 21.9938 37.9398 22.04L33.5898 23.19L33.4298 23.21ZM31.3398 12.58L33.8598 21.86L37.0498 21L34.5398 11.7L31.3398 12.58Z" fill="#547BFE"/>
<path d="M31.38 22.5999C30.652 22.6094 29.9379 22.4004 29.33 21.9999L23.45 18.0999C23.1623 17.9143 22.8273 17.8156 22.485 17.8156C22.1427 17.8156 21.8076 17.9143 21.52 18.0999L19.28 19.4899C19.0533 19.6331 18.7989 19.7268 18.5335 19.7647C18.2681 19.8026 17.9977 19.7839 17.74 19.7099C17.4819 19.6401 17.2424 19.5143 17.0385 19.3414C16.8345 19.1686 16.6712 18.953 16.56 18.7099C16.3863 18.3464 16.3353 17.9364 16.4146 17.5415C16.494 17.1465 16.6994 16.788 17 16.5199L20.85 12.9999C21.3375 12.5557 21.9321 12.2457 22.5754 12.1002C23.2187 11.9547 23.8887 11.9787 24.52 12.1699L27.47 13.0699C28.1387 13.2697 28.8513 13.2697 29.52 13.0699L30.75 12.7299C30.9053 12.6896 31.0702 12.7111 31.21 12.7899C31.2782 12.8283 31.3381 12.8799 31.3862 12.9417C31.4342 13.0035 31.4695 13.0743 31.49 13.1499L33.74 21.4199C33.781 21.571 33.7624 21.7321 33.6879 21.8698C33.6135 22.0076 33.4889 22.1114 33.34 22.1599L32.51 22.4199C32.1451 22.5387 31.7638 22.5995 31.38 22.5999ZM22.47 16.5999C23.0571 16.6015 23.6307 16.7753 24.12 17.0999L30 20.9999C30.3115 21.2067 30.6655 21.3411 31.0359 21.393C31.4063 21.4449 31.7835 21.4131 32.14 21.2999L32.42 21.2099L30.48 14.0599L29.84 14.2399C28.952 14.4999 28.008 14.4999 27.12 14.2399L24.12 13.3399C23.6914 13.2085 23.2358 13.1921 22.7988 13.2921C22.3618 13.3921 21.9588 13.6052 21.63 13.9099L17.81 17.4099C17.7031 17.5034 17.6303 17.6298 17.6032 17.7692C17.576 17.9086 17.596 18.0531 17.66 18.1799C17.6992 18.2682 17.757 18.347 17.8295 18.4108C17.902 18.4747 17.9874 18.5221 18.08 18.5499C18.1723 18.5742 18.2686 18.5797 18.3631 18.5659C18.4576 18.5522 18.5484 18.5195 18.63 18.4699L20.87 16.9999C21.3513 16.7057 21.9059 16.5532 22.47 16.5599V16.5999Z" fill="#547BFE"/>
<path d="M10.36 23.18C10.2731 23.1793 10.1876 23.1588 10.11 23.12L7.35996 21.84C7.21827 21.7743 7.10715 21.6569 7.04948 21.5118C6.99181 21.3667 6.99198 21.205 7.04996 21.06L10.13 13.41C10.1748 13.2775 10.2639 13.1644 10.3823 13.0897C10.5006 13.0151 10.641 12.9834 10.78 13L12.87 13.31C13.3985 13.3877 13.938 13.3327 14.44 13.15L18.8 11.6C19.3986 11.3697 20.0613 11.3697 20.66 11.6L22.32 12.27C22.4578 12.3377 22.565 12.4549 22.6202 12.5983C22.6753 12.7416 22.6744 12.9004 22.6176 13.0431C22.5608 13.1858 22.4522 13.3018 22.3137 13.3679C22.1751 13.4341 22.0166 13.4455 21.87 13.4L20.21 12.73C19.8883 12.605 19.5316 12.605 19.21 12.73L14.85 14.33C14.1618 14.5769 13.4239 14.6524 12.7 14.55L11.08 14.31L8.38996 21L10.62 22C10.7481 22.0556 10.8529 22.1543 10.9161 22.2789C10.9793 22.4036 10.9971 22.5463 10.9662 22.6827C10.9354 22.819 10.858 22.9402 10.7473 23.0256C10.6366 23.1109 10.4996 23.1549 10.36 23.15V23.18Z" fill="#547BFE"/>
<path d="M10.9999 25.52C10.6409 25.5134 10.2923 25.3983 9.99987 25.19C9.80502 25.0525 9.63926 24.8779 9.51211 24.6761C9.38497 24.4744 9.29895 24.2495 9.25899 24.0144C9.21903 23.7793 9.22592 23.5386 9.27928 23.3062C9.33263 23.0737 9.43138 22.8541 9.56987 22.66L10.3299 21.58C10.4671 21.383 10.6418 21.215 10.844 21.0855C11.0461 20.956 11.2718 20.8677 11.5081 20.8254C11.7445 20.7832 11.9868 20.7879 12.2213 20.8393C12.4558 20.8907 12.6779 20.9878 12.8749 21.125C13.0719 21.2622 13.2399 21.4369 13.3693 21.6391C13.4988 21.8412 13.5872 22.0669 13.6295 22.3033C13.6717 22.5396 13.667 22.7819 13.6156 23.0164C13.5642 23.2509 13.4671 23.473 13.3299 23.67L12.5699 24.76C12.4309 24.9533 12.2551 25.1173 12.0526 25.2426C11.8501 25.3678 11.6249 25.4519 11.3899 25.49C11.2617 25.5164 11.1306 25.5265 10.9999 25.52ZM11.7999 22H11.6999C11.622 22.0114 11.5472 22.0386 11.4802 22.0799C11.4131 22.1211 11.3552 22.1756 11.3099 22.24L10.5499 23.32C10.4591 23.4506 10.4229 23.6115 10.449 23.7685C10.4752 23.9254 10.5616 24.0659 10.6899 24.16C10.7546 24.2055 10.8277 24.2378 10.9049 24.2549C10.9821 24.2721 11.062 24.2738 11.1399 24.26C11.2957 24.2327 11.4353 24.1468 11.5299 24.02L12.2899 23C12.3359 22.9365 12.3687 22.8646 12.3866 22.7883C12.4045 22.712 12.407 22.6329 12.3939 22.5556C12.3809 22.4784 12.3526 22.4045 12.3107 22.3383C12.2688 22.2721 12.2141 22.2148 12.1499 22.17C12.0584 22.0718 11.9336 22.0112 11.7999 22Z" fill="#547BFE"/>
<path d="M12.6899 27.49C12.3066 27.4909 11.9325 27.372 11.6199 27.15C11.2171 26.866 10.9434 26.4338 10.859 25.9481C10.7746 25.4625 10.8865 24.9632 11.1699 24.56L13.4799 21.3C13.6057 21.068 13.7793 20.8654 13.9893 20.7057C14.1994 20.5459 14.441 20.4327 14.6981 20.3735C14.9553 20.3144 15.2221 20.3106 15.4808 20.3624C15.7395 20.4143 15.9843 20.5206 16.1988 20.6743C16.4132 20.828 16.5926 21.0256 16.7248 21.254C16.8571 21.4823 16.9392 21.7362 16.9658 21.9987C16.9924 22.2612 16.9628 22.5264 16.8791 22.7766C16.7953 23.0269 16.6592 23.2564 16.4799 23.45L14.1799 26.7C14.0125 26.9409 13.79 27.1383 13.5308 27.2758C13.2716 27.4132 12.9833 27.4866 12.6899 27.49ZM14.9999 21.73C14.896 21.727 14.7931 21.7501 14.7004 21.7973C14.6078 21.8445 14.5286 21.9142 14.4699 22L12.1599 25.26C12.1105 25.3293 12.0754 25.4078 12.0567 25.4908C12.038 25.5739 12.036 25.6598 12.0509 25.7436C12.0658 25.8274 12.0973 25.9074 12.1435 25.9789C12.1897 26.0504 12.2497 26.112 12.3199 26.16C12.3886 26.2099 12.4666 26.2457 12.5492 26.2652C12.6319 26.2847 12.7176 26.2875 12.8014 26.2736C12.8851 26.2596 12.9653 26.2291 13.0371 26.1839C13.109 26.1386 13.1711 26.0795 13.2199 26.01L15.5199 22.75C15.5699 22.6813 15.6056 22.6034 15.6251 22.5207C15.6446 22.4381 15.6474 22.3524 15.6335 22.2686C15.6195 22.1848 15.589 22.1047 15.5438 22.0328C15.4985 21.9609 15.4394 21.8988 15.3699 21.85C15.2617 21.7732 15.1326 21.7313 14.9999 21.73Z" fill="#547BFE"/>
<path d="M15.2798 28.1699C14.8965 28.1708 14.5224 28.052 14.2098 27.8299C13.8063 27.5441 13.5324 27.1101 13.4481 26.6228C13.3637 26.1356 13.4758 25.6347 13.7598 25.2299L15.4098 22.9099C15.697 22.5108 16.1298 22.2409 16.6146 22.1585C17.0993 22.0762 17.597 22.188 17.9998 22.4699C18.2005 22.6088 18.3712 22.7866 18.5017 22.9927C18.6323 23.1989 18.7201 23.4292 18.7598 23.6699C18.8011 23.9113 18.7941 24.1584 18.7392 24.397C18.6842 24.6356 18.5825 24.8609 18.4398 25.0599L16.7998 27.3799C16.6277 27.6232 16.4 27.8218 16.1356 27.9592C15.8712 28.0966 15.5778 28.1689 15.2798 28.1699ZM16.9298 23.3399H16.8198C16.6511 23.3679 16.5002 23.4614 16.3998 23.5999L14.7498 25.9199C14.7002 25.99 14.6649 26.0693 14.646 26.1531C14.6272 26.2369 14.6251 26.3237 14.64 26.4083C14.6549 26.4929 14.6864 26.5738 14.7327 26.6461C14.779 26.7185 14.8392 26.781 14.9098 26.8299C15.0507 26.9271 15.2242 26.9648 15.3927 26.9349C15.5612 26.9049 15.7111 26.8097 15.8098 26.6699L17.4498 24.3499C17.5017 24.2826 17.5383 24.2048 17.5573 24.1219C17.5763 24.0391 17.5772 23.9531 17.5598 23.8699C17.5482 23.7857 17.519 23.7048 17.4742 23.6324C17.4295 23.5601 17.3701 23.4979 17.2998 23.4499C17.191 23.3754 17.0616 23.337 16.9298 23.3399Z" fill="#547BFE"/>
<path d="M17.54 29.4499C17.1913 29.45 16.8492 29.3542 16.5513 29.1729C16.2535 28.9916 16.0112 28.7318 15.8512 28.422C15.6911 28.1122 15.6194 27.7643 15.6439 27.4165C15.6683 27.0686 15.7881 26.7342 15.99 26.4499L17.28 24.6199C17.4983 24.3121 17.8029 24.0759 18.1553 23.9411C18.5077 23.8062 18.8922 23.7788 19.2602 23.8622C19.6282 23.9457 19.9632 24.1362 20.223 24.4099C20.4828 24.6836 20.6557 25.028 20.72 25.3999C20.8065 25.9001 20.6915 26.4143 20.4 26.8299L19.1 28.6499C18.9232 28.8993 18.6894 29.103 18.4181 29.2439C18.1468 29.3848 17.8457 29.4588 17.54 29.4599V29.4499ZM18.84 24.9999H18.72C18.5398 25.0388 18.3798 25.1418 18.27 25.2899L17 27.1399C16.9432 27.2159 16.9024 27.3026 16.8801 27.3948C16.8579 27.487 16.8546 27.5828 16.8705 27.6763C16.8864 27.7699 16.9212 27.8592 16.9726 27.9389C17.0241 28.0185 17.0912 28.0869 17.17 28.1399C17.2443 28.1934 17.3286 28.2316 17.4179 28.2522C17.5072 28.2728 17.5997 28.2754 17.69 28.2599C17.7827 28.2464 17.8715 28.2136 17.9507 28.1636C18.0299 28.1137 18.0978 28.0477 18.15 27.9699L19.44 26.1499C19.4938 26.0737 19.5321 25.9878 19.5527 25.8968C19.5733 25.8059 19.5757 25.7118 19.56 25.6199C19.5446 25.5292 19.511 25.4425 19.4611 25.3651C19.4113 25.2878 19.3462 25.2214 19.27 25.1699C19.1488 25.0681 18.9979 25.0085 18.84 24.9999Z" fill="#547BFE"/>
<path d="M22.8898 28.7798C22.6796 28.78 22.4717 28.7357 22.2798 28.6498L19.4198 27.3398C19.3476 27.307 19.2825 27.2603 19.2284 27.2023C19.1742 27.1443 19.132 27.0762 19.1041 27.002C19.0479 26.8519 19.0535 26.6857 19.1198 26.5398C19.1861 26.394 19.3077 26.2804 19.4577 26.2241C19.6077 26.1679 19.774 26.1735 19.9198 26.2398L22.7798 27.5498C22.8353 27.5745 22.8976 27.5791 22.9561 27.5626C23.0145 27.5462 23.0654 27.5098 23.0998 27.4598C23.1151 27.4269 23.1229 27.3911 23.1229 27.3548C23.1229 27.3186 23.1151 27.2827 23.0998 27.2498C23.0909 27.2141 23.0747 27.1806 23.0524 27.1514C23.03 27.1222 23.0019 27.0978 22.9698 27.0798L21.3798 26.2298C21.2404 26.1518 21.1372 26.0222 21.0923 25.8689C21.0474 25.7155 21.0645 25.5507 21.1398 25.4098C21.1766 25.339 21.2272 25.2762 21.2886 25.2251C21.35 25.1741 21.4209 25.1358 21.4973 25.1125C21.5737 25.0892 21.6539 25.0814 21.7333 25.0895C21.8128 25.0977 21.8898 25.1216 21.9598 25.1598L23.5498 26.0198C23.836 26.1762 24.0621 26.4233 24.1925 26.7223C24.3228 27.0213 24.3501 27.3551 24.2699 27.6712C24.1897 27.9874 24.0067 28.2679 23.7496 28.4685C23.4925 28.6692 23.176 28.7788 22.8498 28.7798H22.8898Z" fill="#547BFE"/>
<path d="M25.1699 27.9401C24.9063 27.9377 24.6466 27.8762 24.4099 27.7601L22.8499 27.0001C22.7778 26.9659 22.7132 26.9177 22.66 26.8582C22.6067 26.7988 22.5658 26.7293 22.5398 26.6539C22.5137 26.5784 22.5029 26.4986 22.5081 26.4189C22.5133 26.3393 22.5343 26.2615 22.5699 26.1901C22.641 26.0463 22.7659 25.9363 22.9175 25.8838C23.0691 25.8314 23.2352 25.8409 23.3799 25.9101L24.9499 26.6801C25.035 26.7182 25.1288 26.7324 25.2213 26.7209C25.3138 26.7095 25.4015 26.673 25.4746 26.6152C25.5478 26.5575 25.6038 26.4808 25.6365 26.3935C25.6691 26.3062 25.6772 26.2116 25.6599 26.1201C25.6448 26.0515 25.6157 25.9868 25.5744 25.93C25.5331 25.8732 25.4805 25.8256 25.4199 25.7901L20.8099 23.1001C20.6713 23.0186 20.5704 22.8858 20.5292 22.7303C20.488 22.5749 20.5098 22.4095 20.5899 22.2701C20.6283 22.2007 20.6802 22.1399 20.7427 22.091C20.8051 22.0422 20.8767 22.0065 20.9532 21.986C21.0297 21.9654 21.1096 21.9605 21.1881 21.9715C21.2666 21.9826 21.342 22.0093 21.4099 22.0501L25.9999 24.7301C26.328 24.9193 26.5845 25.2115 26.7296 25.5614C26.8746 25.9113 26.9001 26.2993 26.8021 26.6652C26.7041 27.031 26.488 27.3543 26.1875 27.5848C25.8869 27.8154 25.5187 27.9402 25.1399 27.9401H25.1699Z" fill="#547BFE"/>
<path d="M26.79 26.31C26.4742 26.3098 26.1639 26.2271 25.89 26.07L22.28 24C22.195 23.9709 22.1175 23.9232 22.0534 23.8602C21.9893 23.7973 21.9401 23.7207 21.9096 23.6362C21.879 23.5517 21.8678 23.4614 21.8768 23.372C21.8858 23.2826 21.9148 23.1964 21.9616 23.1197C22.0084 23.0429 22.0718 22.9777 22.1472 22.9288C22.2225 22.8799 22.3079 22.8485 22.3971 22.837C22.4862 22.8255 22.5767 22.8342 22.6621 22.8624C22.7474 22.8906 22.8253 22.9376 22.89 23L26.51 25C26.5754 25.0394 26.6481 25.0651 26.7238 25.0754C26.7995 25.0858 26.8765 25.0805 26.95 25.06C27.0247 25.0405 27.0945 25.0055 27.1548 24.9572C27.2151 24.909 27.2646 24.8486 27.3 24.78C27.3711 24.6503 27.39 24.4984 27.3528 24.3553C27.3157 24.2121 27.2252 24.0886 27.1 24.01L22.57 21.23C22.4347 21.1453 22.338 21.011 22.3006 20.8558C22.2632 20.7006 22.2881 20.537 22.37 20.4C22.411 20.332 22.4651 20.2728 22.5292 20.2258C22.5933 20.1789 22.666 20.1452 22.7432 20.1266C22.8204 20.108 22.9006 20.1049 22.979 20.1175C23.0574 20.1301 23.1325 20.1581 23.2 20.2L27.73 23C28.0269 23.1825 28.2641 23.4478 28.4124 23.7632C28.5607 24.0787 28.6137 24.4306 28.5648 24.7757C28.516 25.1208 28.3675 25.4442 28.1374 25.706C27.9074 25.9679 27.6059 26.157 27.27 26.25C27.113 26.2893 26.9518 26.3095 26.79 26.31Z" fill="#547BFE"/>
<path d="M28.6098 24.63C28.2172 24.6292 27.8327 24.5183 27.4998 24.31L25.7198 23.19C25.5851 23.102 25.4906 22.9644 25.4569 22.8071C25.4232 22.6497 25.453 22.4854 25.5398 22.35C25.5817 22.2828 25.6364 22.2246 25.7008 22.1786C25.7653 22.1327 25.8382 22.0999 25.9153 22.0823C25.9925 22.0646 26.0723 22.0624 26.1503 22.0757C26.2284 22.0891 26.303 22.1177 26.3698 22.16L28.1498 23.28C28.2475 23.3445 28.3576 23.3877 28.4731 23.4066C28.5886 23.4256 28.7067 23.4199 28.8198 23.39C28.9352 23.3642 29.0438 23.3144 29.1386 23.2437C29.2334 23.173 29.3122 23.0832 29.3698 22.98C29.4823 22.788 29.516 22.5598 29.4638 22.3435C29.4116 22.1272 29.2775 21.9396 29.0898 21.82L25.9098 19.7C25.8442 19.656 25.7878 19.5995 25.744 19.5337C25.7002 19.468 25.6697 19.3942 25.6544 19.3167C25.6391 19.2391 25.6392 19.1593 25.6547 19.0818C25.6702 19.0043 25.7009 18.9307 25.7448 18.865C25.7888 18.7993 25.8453 18.743 25.9111 18.6992C25.9769 18.6553 26.0506 18.6249 26.1282 18.6096C26.2057 18.5942 26.2855 18.5943 26.363 18.6099C26.4405 18.6254 26.5142 18.656 26.5798 18.7L29.7598 20.81C30.0987 21.0324 30.3652 21.3491 30.5266 21.7209C30.688 22.0928 30.7371 22.5037 30.6681 22.9032C30.599 23.3026 30.4148 23.6732 30.1379 23.9693C29.8611 24.2655 29.5037 24.4742 29.1098 24.57C28.946 24.6091 28.7783 24.6292 28.6098 24.63Z" fill="#547BFE"/>
<path d="M7.09991 23.0699C7.03063 23.0842 6.95918 23.0842 6.8899 23.0699L2.3899 21.2999C2.24327 21.2456 2.12208 21.1387 2.0499 20.9999C1.98988 20.8525 1.98988 20.6874 2.0499 20.5399L5.9399 10.3899C5.96365 10.313 6.00264 10.2416 6.05457 10.18C6.10649 10.1184 6.17029 10.0679 6.24214 10.0315C6.314 9.99514 6.39245 9.97359 6.47281 9.96816C6.55317 9.96273 6.63381 9.97354 6.70991 9.99994L11.4599 11.7299C11.5379 11.7578 11.6092 11.8015 11.6694 11.8583C11.7297 11.9151 11.7775 11.9838 11.8099 12.0599C11.8446 12.1334 11.8626 12.2137 11.8626 12.2949C11.8626 12.3762 11.8446 12.4565 11.8099 12.5299L11.2499 13.8699L8.16991 21.5199L7.6599 22.7099C7.61046 22.817 7.53151 22.9077 7.43232 22.9715C7.33313 23.0352 7.21782 23.0694 7.09991 23.0699ZM3.3899 20.3899L6.77991 21.6899L7.05991 21.0499L10.1299 13.4099L10.4499 12.6599L6.85991 11.3799L3.3899 20.3899Z" fill="#547BFE"/>
</g>
<defs>
<clipPath id="clip0_189_74">
<rect width="36.4" height="19.45" fill="white" transform="translate(2 10)"/>
</clipPath>
</defs>
</svg>
