<svg width="40" height="40" viewBox="0 0 40 40" fill="none" xmlns="http://www.w3.org/2000/svg">
<circle cx="20" cy="20" r="20" fill="#F1FBFF"/>
<g clip-path="url(#clip0_189_150)">
<circle cx="30" cy="20" r="3" fill="#90FEE4"/>
<path d="M17.508 11.6038C17.3553 11.6038 17.2088 11.5432 17.1009 11.4352C16.9929 11.3273 16.9322 11.1809 16.9322 11.0283V8.51888C16.9218 8.43776 16.9287 8.35536 16.9526 8.27715C16.9765 8.19894 17.0169 8.12672 17.0709 8.06531C17.1249 8.0039 17.1915 7.9547 17.266 7.921C17.3406 7.8873 17.4215 7.86987 17.5033 7.86987C17.5851 7.86987 17.666 7.8873 17.7406 7.921C17.8151 7.9547 17.8816 8.0039 17.9357 8.06531C17.9897 8.12672 18.03 8.19894 18.0539 8.27715C18.0778 8.35536 18.0848 8.43776 18.0744 8.51888V11.0283C18.0756 11.1034 18.0619 11.1781 18.034 11.2478C18.0061 11.3176 17.9646 11.3811 17.9118 11.4347C17.8591 11.4882 17.7963 11.5308 17.7269 11.5598C17.6576 11.5888 17.5832 11.6038 17.508 11.6038Z" fill="#547BFE"/>
<path d="M12.7695 12.8678C12.6718 12.8698 12.5753 12.8466 12.4893 12.8003C12.4033 12.754 12.3307 12.6863 12.2787 12.6037L11.0138 10.4055C10.977 10.3406 10.9534 10.269 10.9443 10.1948C10.9353 10.1207 10.941 10.0455 10.9612 9.97358C10.9814 9.90167 11.0156 9.83447 11.0619 9.77584C11.1082 9.7172 11.1656 9.66831 11.2309 9.63196C11.295 9.59347 11.3662 9.56828 11.4403 9.55789C11.5144 9.5475 11.5898 9.55213 11.662 9.5715C11.7343 9.59087 11.8018 9.62459 11.8608 9.67063C11.9197 9.71668 11.9687 9.77411 12.0049 9.83951L13.2603 12.0093C13.336 12.1408 13.3566 12.2969 13.3177 12.4435C13.2788 12.5902 13.1836 12.7155 13.0527 12.7923C12.9677 12.8447 12.8693 12.8709 12.7695 12.8678Z" fill="#547BFE"/>
<path d="M9.30539 16.3773C9.20185 16.3767 9.10052 16.3473 9.01278 16.2924L6.84176 14.9999C6.77648 14.9636 6.71904 14.9147 6.67276 14.8561C6.62647 14.7974 6.59225 14.7302 6.57207 14.6583C6.55189 14.5864 6.54615 14.5112 6.55517 14.4371C6.5642 14.363 6.58781 14.2913 6.62466 14.2264C6.70167 14.0958 6.82639 14.0002 6.97253 13.9597C7.11868 13.9192 7.27484 13.937 7.40811 14.0094L9.60745 15.2641C9.75515 15.3041 9.88089 15.4012 9.95701 15.5339C10.0331 15.6665 10.0534 15.824 10.0133 15.9716C9.97328 16.1193 9.87619 16.2449 9.74342 16.321C9.61066 16.3971 9.45309 16.4173 9.30539 16.3773Z" fill="#547BFE"/>
<path d="M8.03104 21.0942H5.52021C5.43906 21.1047 5.3566 21.0977 5.27835 21.0738C5.2001 21.0499 5.12784 21.0096 5.06639 20.9556C5.00495 20.9016 4.95573 20.8351 4.92201 20.7606C4.88829 20.6861 4.87085 20.6053 4.87085 20.5235C4.87085 20.4417 4.88829 20.3608 4.92201 20.2863C4.95573 20.2118 5.00495 20.1453 5.06639 20.0913C5.12784 20.0373 5.2001 19.997 5.27835 19.9731C5.3566 19.9492 5.43906 19.9423 5.52021 19.9527H8.03104C8.1122 19.9423 8.19465 19.9492 8.2729 19.9731C8.35115 19.997 8.42341 20.0373 8.48486 20.0913C8.5463 20.1453 8.59552 20.2118 8.62924 20.2863C8.66296 20.3608 8.6804 20.4417 8.6804 20.5235C8.6804 20.6053 8.66296 20.6861 8.62924 20.7606C8.59552 20.8351 8.5463 20.9016 8.48486 20.9556C8.42341 21.0096 8.35115 21.0499 8.2729 21.0738C8.19465 21.0977 8.1122 21.1047 8.03104 21.0942Z" fill="#547BFE"/>
<path d="M7.12493 27.0566C7.02405 27.0574 6.92473 27.0316 6.83693 26.9819C6.74913 26.9323 6.67593 26.8604 6.62466 26.7736C6.55228 26.6404 6.53447 26.4843 6.57497 26.3382C6.61546 26.1922 6.71111 26.0675 6.84176 25.9906L9.01277 24.7358C9.14492 24.6627 9.30025 24.6434 9.44627 24.6821C9.59229 24.7208 9.71768 24.8144 9.79623 24.9434C9.87187 25.0749 9.89248 25.231 9.85359 25.3776C9.8147 25.5242 9.71946 25.6496 9.58857 25.7264L7.40811 26.9811C7.32315 27.0334 7.22468 27.0597 7.12493 27.0566Z" fill="#547BFE"/>
<path d="M11.4953 31.4716C11.3955 31.4747 11.2971 31.4484 11.2121 31.3961C11.0815 31.3191 10.9858 31.1945 10.9453 31.0484C10.9048 30.9024 10.9226 30.7463 10.995 30.6131L12.2599 28.4433C12.349 28.3529 12.466 28.2951 12.592 28.2791C12.718 28.2632 12.8456 28.29 12.9545 28.3553C13.0634 28.4206 13.1472 28.5206 13.1924 28.6392C13.2376 28.7578 13.2416 28.8882 13.2038 29.0093L12.005 31.1603C11.9575 31.2545 11.8846 31.3335 11.7946 31.3885C11.7045 31.4436 11.6008 31.4723 11.4953 31.4716Z" fill="#547BFE"/>
<path d="M17.508 33.0567C17.3553 33.0567 17.2088 32.996 17.1009 32.8881C16.9929 32.7802 16.9322 32.6338 16.9322 32.4812V29.9718C16.9218 29.8906 16.9287 29.8082 16.9526 29.73C16.9765 29.6518 17.0169 29.5796 17.0709 29.5182C17.1249 29.4568 17.1915 29.4076 17.266 29.3739C17.3406 29.3402 17.4215 29.3228 17.5033 29.3228C17.5851 29.3228 17.666 29.3402 17.7406 29.3739C17.8151 29.4076 17.8816 29.4568 17.9357 29.5182C17.9897 29.5796 18.03 29.6518 18.0539 29.73C18.0778 29.8082 18.0848 29.8906 18.0744 29.9718V32.4812C18.0744 32.6322 18.015 32.7772 17.9091 32.8848C17.8031 32.9925 17.6591 33.0542 17.508 33.0567Z" fill="#547BFE"/>
<path d="M25.7107 16.3775C25.6101 16.3776 25.5113 16.3505 25.4249 16.299C25.3385 16.2475 25.2676 16.1735 25.2199 16.085C25.1443 15.9535 25.1236 15.7975 25.1625 15.6508C25.2014 15.5042 25.2967 15.3788 25.4276 15.302L27.608 14.0473C27.7399 13.9754 27.8946 13.9579 28.0392 13.9984C28.1838 14.039 28.3068 14.1344 28.382 14.2643C28.4205 14.3283 28.4457 14.3995 28.4561 14.4735C28.4665 14.5476 28.4619 14.6229 28.4425 14.6951C28.4231 14.7673 28.3894 14.8349 28.3433 14.8938C28.2973 14.9526 28.2398 15.0017 28.1744 15.0379L25.9939 16.2926C25.9102 16.3487 25.8115 16.3783 25.7107 16.3775Z" fill="#547BFE"/>
<path d="M22.2465 12.868C22.1466 12.8722 22.0478 12.8459 21.9633 12.7925C21.8327 12.7156 21.737 12.5909 21.6965 12.4448C21.656 12.2988 21.6739 12.1427 21.7462 12.0095L23.0017 9.83969C23.0783 9.71387 23.2003 9.62221 23.3425 9.5836C23.4848 9.54499 23.6364 9.56236 23.7662 9.63214C23.8317 9.66835 23.8891 9.71735 23.9352 9.77624C23.9813 9.83512 24.015 9.90268 24.0344 9.97487C24.0538 10.0471 24.0584 10.1224 24.048 10.1965C24.0376 10.2705 24.0124 10.3417 23.9739 10.4057L22.7374 12.6038C22.6853 12.6864 22.6127 12.7542 22.5267 12.8005C22.4407 12.8467 22.3442 12.87 22.2465 12.868Z" fill="#547BFE"/>
<path d="M14.6197 10.3018C14.4952 10.3038 14.3735 10.2639 14.2743 10.1887C14.175 10.1134 14.1039 10.0071 14.0723 9.88669L13.8551 9.07537C13.8338 9.00352 13.8271 8.92809 13.8356 8.85361C13.8441 8.77912 13.8676 8.70712 13.9046 8.64193C13.9416 8.57673 13.9914 8.51968 14.0511 8.4742C14.1107 8.42872 14.1789 8.39575 14.2516 8.37726C14.398 8.33654 14.5546 8.35535 14.6873 8.42957C14.8199 8.5038 14.9178 8.62742 14.9595 8.77349L15.1766 9.58481C15.2142 9.73112 15.1927 9.88634 15.1168 10.0169C15.0408 10.1476 14.9165 10.2431 14.7708 10.2829C14.722 10.2985 14.6708 10.3048 14.6197 10.3018Z" fill="#547BFE"/>
<path d="M9.60756 13.1887C9.53199 13.1889 9.45715 13.174 9.38744 13.1448C9.31773 13.1157 9.25457 13.0729 9.20167 13.0189L8.66364 12.434C8.60869 12.3258 8.58939 12.203 8.60848 12.0831C8.62758 11.9633 8.6841 11.8525 8.76996 11.7667C8.85583 11.6809 8.96664 11.6244 9.08656 11.6053C9.20648 11.5862 9.32937 11.6055 9.43765 11.6604L10.0229 12.2548C10.0768 12.3067 10.1198 12.369 10.1491 12.4379C10.1784 12.5068 10.1935 12.5808 10.1935 12.6557C10.1935 12.7306 10.1784 12.8047 10.1491 12.8736C10.1198 12.9425 10.0768 13.0047 10.0229 13.0567C9.96639 13.1059 9.90038 13.1431 9.82894 13.1658C9.7575 13.1885 9.68215 13.1963 9.60756 13.1887Z" fill="#547BFE"/>
<path d="M6.77558 18.1887H6.62455L5.81278 17.9717C5.66664 17.93 5.54294 17.8322 5.46867 17.6996C5.39441 17.5671 5.37559 17.4106 5.41633 17.2642C5.43598 17.1922 5.46967 17.1249 5.51546 17.0659C5.56125 17.007 5.61824 16.9578 5.68315 16.9209C5.74807 16.8841 5.81962 16.8605 5.8937 16.8514C5.96779 16.8423 6.04294 16.8479 6.11483 16.868L6.9266 17.085C7.04457 17.1334 7.14311 17.2196 7.20676 17.33C7.2704 17.4405 7.29556 17.5689 7.27828 17.6952C7.261 17.8215 7.20226 17.9385 7.11128 18.0278C7.0203 18.1171 6.90222 18.1737 6.77558 18.1887Z" fill="#547BFE"/>
<path d="M5.9262 24.1697C5.79131 24.1637 5.66282 24.1105 5.56319 24.0194C5.46355 23.9284 5.3991 23.8052 5.38111 23.6715C5.36312 23.5377 5.39273 23.4019 5.46476 23.2878C5.53679 23.1736 5.64666 23.0884 5.77517 23.047L6.58694 22.8301C6.73334 22.7925 6.88864 22.814 7.01932 22.8899C7.15 22.9658 7.24559 23.09 7.28545 23.2357C7.30549 23.3076 7.31113 23.3827 7.30204 23.4567C7.29295 23.5308 7.2693 23.6023 7.23246 23.6672C7.19561 23.732 7.1463 23.789 7.08736 23.8348C7.02842 23.8805 6.96101 23.9142 6.889 23.9338L6.07723 24.1508C6.02848 24.1664 5.97728 24.1728 5.9262 24.1697Z" fill="#547BFE"/>
<path d="M9.03169 29.585C8.88646 29.5668 8.75421 29.4922 8.66356 29.3774C8.60933 29.3247 8.56622 29.2616 8.53679 29.1919C8.50735 29.1222 8.49219 29.0474 8.49219 28.9717C8.49219 28.8961 8.50735 28.8213 8.53679 28.7516C8.56622 28.6819 8.60933 28.6188 8.66356 28.5661L9.25823 27.9717C9.36569 27.8674 9.50959 27.8091 9.65939 27.8091C9.80919 27.8091 9.9531 27.8674 10.0606 27.9717C10.1148 28.0245 10.1579 28.0876 10.1873 28.1572C10.2168 28.2269 10.2319 28.3018 10.2319 28.3774C10.2319 28.453 10.2168 28.5279 10.1873 28.5976C10.1579 28.6672 10.1148 28.7303 10.0606 28.7831L9.47533 29.3774C9.42164 29.443 9.3539 29.4957 9.27712 29.5316C9.20033 29.5675 9.11646 29.5857 9.03169 29.585Z" fill="#547BFE"/>
<path d="M14.4025 32.6414C14.3525 32.65 14.3015 32.65 14.2515 32.6414C14.1795 32.6218 14.1121 32.5881 14.0531 32.5423C13.9942 32.4966 13.9449 32.4396 13.908 32.3747C13.8712 32.3099 13.8475 32.2383 13.8384 32.1643C13.8294 32.0903 13.835 32.0151 13.855 31.9433L14.0721 31.132C14.112 30.9863 14.2076 30.8621 14.3383 30.7862C14.4689 30.7103 14.6242 30.6888 14.7706 30.7263C14.9172 30.7682 15.0415 30.8656 15.1173 30.9977C15.1931 31.1298 15.2144 31.2863 15.1765 31.4339L14.9594 32.2357C14.9215 32.3535 14.8471 32.4563 14.747 32.5292C14.647 32.6021 14.5263 32.6414 14.4025 32.6414Z" fill="#547BFE"/>
<path d="M20.6134 32.6414C20.4868 32.6417 20.3637 32.6002 20.263 32.5235C20.1623 32.4468 20.0897 32.339 20.0565 32.2169L19.8394 31.415C19.8042 31.3392 19.7859 31.2566 19.7859 31.173C19.7858 31.0894 19.804 31.0068 19.8391 30.9309C19.8743 30.8551 19.9255 30.7878 19.9893 30.7337C20.0531 30.6796 20.1279 30.6401 20.2086 30.6179C20.2892 30.5957 20.3737 30.5913 20.4562 30.605C20.5387 30.6187 20.6172 30.6502 20.6863 30.6974C20.7554 30.7445 20.8134 30.8061 20.8562 30.8779C20.8991 30.9497 20.9257 31.0299 20.9344 31.1131L21.1515 31.9244C21.1714 31.9969 21.1766 32.0726 21.1669 32.1471C21.1572 32.2217 21.1328 32.2935 21.095 32.3585C21.0572 32.4235 21.0068 32.4803 20.9469 32.5256C20.8869 32.571 20.8185 32.6039 20.7456 32.6225C20.7031 32.6368 20.6583 32.6432 20.6134 32.6414Z" fill="#547BFE"/>
<path d="M25.3897 13.1886C25.2835 13.182 25.1812 13.146 25.0941 13.0847C25.0071 13.0235 24.9387 12.9393 24.8967 12.8416C24.8546 12.7438 24.8405 12.6363 24.8559 12.5311C24.8713 12.4258 24.9156 12.3268 24.9838 12.2452L25.5785 11.6603C25.6313 11.6061 25.6944 11.563 25.7641 11.5336C25.8338 11.5042 25.9087 11.489 25.9844 11.489C26.0601 11.489 26.135 11.5042 26.2047 11.5336C26.2744 11.563 26.3375 11.6061 26.3903 11.6603C26.4953 11.7693 26.5539 11.9147 26.5539 12.0659C26.5539 12.2172 26.4953 12.3626 26.3903 12.4716L25.7956 13.0565C25.6827 13.1518 25.5371 13.1992 25.3897 13.1886Z" fill="#547BFE"/>
<path d="M20.3964 10.302C20.3466 10.3119 20.2952 10.3119 20.2454 10.302C20.1725 10.2833 20.1041 10.2504 20.0441 10.2051C19.9841 10.1597 19.9338 10.1029 19.896 10.0379C19.8582 9.97296 19.8338 9.9011 19.8241 9.82657C19.8144 9.75204 19.8196 9.67632 19.8395 9.60384L20.0566 8.79252C20.0763 8.72055 20.1099 8.65317 20.1557 8.59427C20.2015 8.53536 20.2585 8.48607 20.3234 8.44925C20.3883 8.41243 20.4599 8.38879 20.534 8.37971C20.6081 8.37062 20.6832 8.37625 20.7551 8.39629C20.8286 8.41373 20.8979 8.44594 20.9585 8.49097C21.0192 8.536 21.0701 8.5929 21.1081 8.65822C21.1461 8.72353 21.1703 8.79588 21.1794 8.87087C21.1885 8.94586 21.1823 9.02191 21.161 9.0944L20.9345 9.88686C20.9018 10.0049 20.8317 10.1092 20.7347 10.184C20.6377 10.2589 20.519 10.3003 20.3964 10.302Z" fill="#547BFE"/>
<path d="M17.5081 35C13.6603 35 9.9701 33.4723 7.24931 30.753C4.52852 28.0338 3 24.3456 3 20.5C3 16.6544 4.52852 12.9662 7.24931 10.247C9.9701 7.52767 13.6603 6 17.5081 6C20.8394 6.01719 24.0665 7.16288 26.6621 9.24992C29.2578 11.337 31.0687 14.242 31.799 17.4906C31.8223 17.6357 31.7891 17.7843 31.7062 17.9058C31.6233 18.0273 31.4971 18.1124 31.3534 18.1438C31.2096 18.1752 31.0594 18.1504 30.9333 18.0746C30.8073 17.9987 30.7152 17.8775 30.6757 17.7358C30.0064 14.7402 28.339 12.0606 25.9467 10.1359C23.5545 8.21111 20.5791 7.15535 17.5081 7.14151C13.9632 7.14151 10.5635 8.54892 8.05693 11.0541C5.55033 13.5593 4.14214 16.9571 4.14214 20.5C4.14214 24.0429 5.55033 27.4407 8.05693 29.9459C10.5635 32.4511 13.9632 33.8585 17.5081 33.8585C19.4878 33.8639 21.4433 33.4221 23.2282 32.566C23.366 32.5014 23.5237 32.4939 23.667 32.5452C23.8102 32.5964 23.9274 32.7023 23.9928 32.8396C24.0261 32.9076 24.0454 32.9815 24.0497 33.0571C24.0539 33.1326 24.0429 33.2082 24.0174 33.2795C23.9919 33.3507 23.9523 33.4161 23.9011 33.4718C23.8498 33.5275 23.7879 33.5724 23.719 33.6038C21.7792 34.5275 19.6568 35.0047 17.5081 35Z" fill="#547BFE"/>
<path d="M17.508 19.5188C17.4328 19.52 17.3582 19.5063 17.2884 19.4784C17.2186 19.4505 17.155 19.409 17.1014 19.3564C17.0478 19.3037 17.0053 19.2408 16.9762 19.1716C16.9472 19.1023 16.9322 19.0279 16.9322 18.9527V14.6131C16.9218 14.532 16.9287 14.4496 16.9526 14.3714C16.9765 14.2932 17.0169 14.221 17.0709 14.1595C17.1249 14.0981 17.1915 14.0489 17.266 14.0152C17.3406 13.9815 17.4215 13.9641 17.5033 13.9641C17.5851 13.9641 17.666 13.9815 17.7406 14.0152C17.8151 14.0489 17.8816 14.0981 17.9357 14.1595C17.9897 14.221 18.03 14.2932 18.0539 14.3714C18.0778 14.4496 18.0848 14.532 18.0744 14.6131V18.9527C18.0744 19.1029 18.0147 19.2468 17.9085 19.353C17.8023 19.4591 17.6582 19.5188 17.508 19.5188Z" fill="#547BFE"/>
<path d="M15.3841 21.0942H12.7695C12.6883 21.1047 12.6059 21.0977 12.5276 21.0738C12.4494 21.0499 12.3771 21.0096 12.3157 20.9556C12.2542 20.9016 12.205 20.8351 12.1713 20.7606C12.1376 20.6861 12.1201 20.6053 12.1201 20.5235C12.1201 20.4417 12.1376 20.3608 12.1713 20.2863C12.205 20.2118 12.2542 20.1453 12.3157 20.0913C12.3771 20.0373 12.4494 19.997 12.5276 19.9731C12.6059 19.9492 12.6883 19.9423 12.7695 19.9527H15.3841C15.4653 19.9423 15.5477 19.9492 15.626 19.9731C15.7043 19.997 15.7765 20.0373 15.838 20.0913C15.8994 20.1453 15.9486 20.2118 15.9823 20.2863C16.0161 20.3608 16.0335 20.4417 16.0335 20.5235C16.0335 20.6053 16.0161 20.6861 15.9823 20.7606C15.9486 20.8351 15.8994 20.9016 15.838 20.9556C15.7765 21.0096 15.7043 21.0499 15.626 21.0738C15.5477 21.0977 15.4653 21.1047 15.3841 21.0942Z" fill="#547BFE"/>
<path d="M29.9677 23.8397C29.265 23.8416 28.5775 23.6349 27.9924 23.2458C27.4073 22.8568 26.9509 22.3029 26.6812 21.6543C26.4114 21.0058 26.3403 20.2918 26.4769 19.6028C26.6136 18.9139 26.9518 18.281 27.4487 17.7843C27.9456 17.2877 28.5789 16.9496 29.2682 16.8131C29.9576 16.6765 30.672 16.7475 31.3209 17.0172C31.9698 17.2868 32.524 17.7429 32.9132 18.3277C33.3025 18.9125 33.5093 19.5996 33.5074 20.302C33.505 21.2395 33.1312 22.1378 32.4679 22.8008C31.8047 23.4637 30.9058 23.8372 29.9677 23.8397ZM29.9677 17.8963C29.4913 17.8944 29.025 18.0339 28.6279 18.2971C28.2309 18.5603 27.9209 18.9354 27.7373 19.3748C27.5536 19.8142 27.5046 20.2982 27.5964 20.7655C27.6882 21.2327 27.9167 21.6623 28.253 21.9996C28.5892 22.337 29.0181 22.5671 29.4852 22.6607C29.9524 22.7543 30.4369 22.7072 30.8772 22.5254C31.3176 22.3436 31.6941 22.0353 31.959 21.6394C32.2239 21.2436 32.3653 20.7782 32.3653 20.302C32.3628 19.6663 32.1097 19.0573 31.6609 18.6069C31.2121 18.1566 30.6037 17.9013 29.9677 17.8963Z" fill="#547BFE"/>
<path d="M33.8002 34.302C33.6474 34.302 33.501 34.2414 33.393 34.1334C33.285 34.0255 33.2244 33.8792 33.2244 33.7265V28.3775C33.2244 28.2248 33.285 28.0785 33.393 27.9706C33.501 27.8626 33.6474 27.802 33.8002 27.802C33.9529 27.802 34.0993 27.8626 34.2073 27.9706C34.3153 28.0785 34.3759 28.2248 34.3759 28.3775V33.6794C34.3825 33.7588 34.3724 33.8387 34.3464 33.9141C34.3204 33.9895 34.2791 34.0586 34.2249 34.1171C34.1708 34.1757 34.1051 34.2223 34.032 34.2542C33.9589 34.286 33.8799 34.3023 33.8002 34.302Z" fill="#547BFE"/>
<path d="M26.1354 34.302C25.9827 34.302 25.8362 34.2413 25.7282 34.1334C25.6202 34.0255 25.5596 33.8791 25.5596 33.7265V28.3774C25.5775 28.2387 25.6453 28.1112 25.7504 28.0188C25.8555 27.9264 25.9907 27.8755 26.1306 27.8755C26.2706 27.8755 26.4058 27.9264 26.5109 28.0188C26.616 28.1112 26.6838 28.2387 26.7017 28.3774V33.6793C26.7097 33.7583 26.7009 33.838 26.676 33.9133C26.6511 33.9887 26.6107 34.058 26.5573 34.1167C26.5039 34.1754 26.4387 34.2222 26.366 34.2541C26.2933 34.2861 26.2148 34.3024 26.1354 34.302Z" fill="#547BFE"/>
<path d="M36.4336 34.4907C36.2809 34.4907 36.1344 34.4301 36.0265 34.3221C35.9185 34.2142 35.8578 34.0678 35.8578 33.9152V28.6416C35.8586 27.8199 35.542 27.0296 34.974 26.4355C34.4059 25.8414 33.6303 25.4894 32.8089 25.4529C31.9373 25.9171 30.9648 26.1599 29.9772 26.1599C28.9895 26.1599 28.0171 25.9171 27.1454 25.4529C26.3198 25.4846 25.5385 25.8342 24.965 26.4285C24.3914 27.0229 24.0701 27.8159 24.0682 28.6416V33.8963C24.0787 33.9775 24.0717 34.0599 24.0478 34.1381C24.0239 34.2163 23.9836 34.2885 23.9296 34.3499C23.8755 34.4113 23.809 34.4605 23.7344 34.4942C23.6599 34.5279 23.579 34.5453 23.4972 34.5453C23.4154 34.5453 23.3345 34.5279 23.2599 34.4942C23.1854 34.4605 23.1188 34.4113 23.0648 34.3499C23.0108 34.2885 22.9704 34.2163 22.9465 34.1381C22.9226 34.0599 22.9157 33.9775 22.9261 33.8963V28.6416C22.9261 28.0717 23.0384 27.5074 23.2566 26.9809C23.4748 26.4544 23.7947 25.976 24.1979 25.573C24.6011 25.1701 25.0797 24.8504 25.6065 24.6323C26.1333 24.4143 26.6979 24.302 27.2681 24.302C27.3675 24.3023 27.465 24.3283 27.5513 24.3775C28.2836 24.8034 29.1158 25.0277 29.963 25.0277C30.8103 25.0277 31.6424 24.8034 32.3747 24.3775C32.4649 24.3294 32.5652 24.3035 32.6674 24.302C33.814 24.3095 34.9112 24.77 35.7194 25.583C36.5275 26.396 36.9811 27.4956 36.9811 28.6416V33.8963C36.9862 34.0474 36.9317 34.1945 36.8292 34.3057C36.7268 34.4169 36.5847 34.4833 36.4336 34.4907Z" fill="#547BFE"/>
</g>
<defs>
<clipPath id="clip0_189_150">
<rect width="34" height="29" fill="white" transform="translate(3 6)"/>
</clipPath>
</defs>
</svg>
