<svg width="40" height="40" viewBox="0 0 40 40" fill="none" xmlns="http://www.w3.org/2000/svg">
<circle cx="20" cy="20" r="20" fill="#F1FBFF"/>
<g clip-path="url(#clip0_189_113)">
<path d="M17.5 10V6.5H23.5V10L25.5 11L28 8.5L32.5 13L30 15.5L31 17.5H34.5V23.5H31L30 25.5L32.5 28L28 32.5L25.5 30L23.5 31V34.5H17.5L17 31L15.5 30L13 32.5L8.5 28L11 25.5L10 23.5H6.5V17H10.5L11 15.5L8.5 13L13 8.5L15.5 11L17.5 10Z" fill="#90FEE4"/>
<circle cx="20.5" cy="20.5" r="8.5" fill="#F1FBFF"/>
<path d="M23.686 34.9999H17.3057C17.2391 35 17.1731 34.9867 17.1117 34.961C17.0503 34.9352 16.9946 34.8975 16.9479 34.85C16.9012 34.8026 16.8644 34.7463 16.8397 34.6844C16.815 34.6226 16.8028 34.5564 16.8039 34.4898V31.145C16.3906 31.0008 15.9858 30.8333 15.5914 30.6432L13.2166 33.0097C13.1214 33.1022 12.9939 33.1539 12.8612 33.1539C12.7284 33.1539 12.601 33.1022 12.5058 33.0097L7.9902 28.4942C7.89516 28.3985 7.84117 28.2695 7.83968 28.1346C7.8369 28.0623 7.84881 27.9902 7.87468 27.9227C7.90055 27.8551 7.93985 27.7935 7.9902 27.7416L10.3651 25.4002C10.1751 25.0086 10.0076 24.6066 9.86332 24.196H6.51845C6.45077 24.1971 6.38354 24.1848 6.32068 24.1596C6.25783 24.1345 6.2006 24.0971 6.15235 24.0496C6.10409 24.0021 6.06577 23.9455 6.03961 23.8831C6.01346 23.8206 5.99999 23.7536 6 23.6859V17.3056C5.99999 17.239 6.01324 17.1731 6.03898 17.1116C6.06471 17.0502 6.10242 16.9945 6.1499 16.9478C6.19738 16.9011 6.25368 16.8643 6.31552 16.8396C6.37736 16.8149 6.4435 16.8028 6.51009 16.8039H9.85496C9.99917 16.3905 10.1667 15.9857 10.3567 15.5913L7.9902 13.2165C7.9424 13.1705 7.90437 13.1153 7.8784 13.0542C7.85243 12.9931 7.83904 12.9275 7.83904 12.8611C7.83904 12.7947 7.85243 12.7291 7.8784 12.668C7.90437 12.6069 7.9424 12.5517 7.9902 12.5057L12.5058 7.99013C12.5518 7.94233 12.607 7.90431 12.6681 7.87834C12.7291 7.85236 12.7948 7.83898 12.8612 7.83898C12.9275 7.83898 12.9932 7.85236 13.0543 7.87834C13.1153 7.90431 13.1705 7.94233 13.2166 7.99013L15.5914 10.365C15.9858 10.175 16.3906 10.0075 16.8039 9.86326V6.51839C16.8028 6.4518 16.815 6.38566 16.8397 6.32382C16.8644 6.26198 16.9012 6.20568 16.9479 6.1582C16.9946 6.11072 17.0503 6.07301 17.1117 6.04728C17.1731 6.02154 17.2391 6.00829 17.3057 6.0083H23.686C23.8213 6.0083 23.951 6.06204 24.0467 6.1577C24.1423 6.25336 24.1961 6.38311 24.1961 6.51839V9.86326C24.6067 10.0075 25.0087 10.175 25.4002 10.365L27.7416 7.99013C27.8382 7.89713 27.9671 7.84518 28.1012 7.84518C28.2353 7.84518 28.3642 7.89713 28.4608 7.99013L32.9764 12.5057C33.0688 12.6009 33.1205 12.7284 33.1205 12.8611C33.1205 12.9938 33.0688 13.1213 32.9764 13.2165L30.6015 15.5913C30.7915 15.9857 30.959 16.3905 31.1032 16.8039H34.4481C34.5147 16.8028 34.5808 16.8149 34.6427 16.8396C34.7045 16.8643 34.7608 16.9011 34.8083 16.9478C34.8558 16.9945 34.8935 17.0502 34.9192 17.1116C34.9449 17.1731 34.9582 17.239 34.9582 17.3056V23.6859C34.9582 23.8212 34.9044 23.951 34.8088 24.0466C34.7131 24.1423 34.5834 24.196 34.4481 24.196H31.1032C30.959 24.6066 30.7915 25.0086 30.6015 25.4002L33.0098 27.7416C33.101 27.8391 33.1519 27.9676 33.152 28.1012C33.1536 28.235 33.1025 28.3642 33.0098 28.4607L28.4942 32.9763C28.3976 33.0693 28.2688 33.1213 28.1347 33.1213C28.0006 33.1213 27.8717 33.0693 27.7751 32.9763L25.4002 30.6349C25.0087 30.8248 24.6067 30.9924 24.1961 31.1366V34.4815C24.1972 34.5492 24.1848 34.6164 24.1597 34.6793C24.1345 34.7421 24.0971 34.7993 24.0497 34.8476C24.0022 34.8958 23.9456 34.9342 23.8831 34.9603C23.8207 34.9865 23.7537 35 23.686 34.9999ZM17.8325 33.9881H23.201V30.7687C23.1941 30.6545 23.2258 30.5412 23.291 30.4472C23.3562 30.3532 23.4511 30.2838 23.5606 30.2502C24.1379 30.0734 24.6977 29.8438 25.233 29.5645C25.3289 29.5151 25.4381 29.4973 25.5448 29.5138C25.6515 29.5304 25.7502 29.5803 25.8267 29.6565L28.1347 31.9227L31.9227 28.1346L29.6482 25.8601C29.572 25.7836 29.5221 25.6849 29.5055 25.5782C29.489 25.4715 29.5068 25.3623 29.5562 25.2664C29.8403 24.7206 30.0727 24.1495 30.2503 23.5605C30.2838 23.4583 30.3487 23.3693 30.4358 23.3062C30.5229 23.2432 30.6277 23.2092 30.7353 23.2093H33.9547V17.8157H30.7687C30.6545 17.8226 30.5413 17.7909 30.4473 17.7257C30.3532 17.6605 30.2838 17.5655 30.2503 17.4561C30.066 16.8603 29.8252 16.2835 29.5311 15.7335C29.4804 15.6379 29.4619 15.5284 29.4784 15.4214C29.495 15.3143 29.5458 15.2156 29.6231 15.1398L31.9227 12.8569L28.1347 9.06885L25.8601 11.3434C25.7813 11.4272 25.6764 11.4819 25.5626 11.4986C25.4487 11.5153 25.3326 11.493 25.233 11.4353C24.6981 11.1438 24.1385 10.9004 23.5606 10.7078C23.4577 10.6755 23.3679 10.6108 23.3047 10.5235C23.2414 10.4361 23.208 10.3307 23.2093 10.2228V7.01176H17.8157V10.2228C17.8166 10.3317 17.7819 10.438 17.7171 10.5255C17.6522 10.613 17.5606 10.677 17.4562 10.7078C16.8615 10.8987 16.285 11.1422 15.7336 11.4353C15.6379 11.4861 15.5284 11.5046 15.4214 11.488C15.3144 11.4715 15.2156 11.4207 15.1398 11.3434L12.857 9.06885L9.06892 12.8569L11.3434 15.1398C11.4208 15.2156 11.4715 15.3143 11.4881 15.4214C11.5047 15.5284 11.4862 15.6379 11.4354 15.7335C11.1422 16.285 10.8987 16.8614 10.7079 17.4561C10.677 17.5606 10.613 17.6521 10.5255 17.717C10.438 17.7819 10.3318 17.8165 10.2229 17.8157H7.01182V23.1842H10.2229C10.3307 23.1828 10.4362 23.2162 10.5235 23.2795C10.6109 23.3428 10.6756 23.4325 10.7079 23.5354C10.9005 24.1214 11.1439 24.6894 11.4354 25.2329C11.4849 25.3289 11.5026 25.4381 11.4861 25.5448C11.4696 25.6515 11.4196 25.7501 11.3434 25.8266L9.06892 28.1346L12.857 31.9227L15.1398 29.6482C15.2156 29.5708 15.3144 29.5201 15.4214 29.5035C15.5284 29.4869 15.6379 29.5054 15.7336 29.5562C16.2845 29.8416 16.8613 30.074 17.4562 30.2502C17.5599 30.2823 17.6507 30.3466 17.7154 30.4338C17.7801 30.521 17.8152 30.6266 17.8157 30.7352L17.8325 33.9881Z" fill="#547BFE"/>
<path d="M20.4999 29.414C18.7464 29.4074 17.034 28.8818 15.5788 27.9034C14.1235 26.9251 12.9904 25.5378 12.3224 23.9164C11.6544 22.2951 11.4814 20.5123 11.8251 18.7927C12.1688 17.0732 13.014 15.4939 14.2539 14.2539C15.4939 13.014 17.0732 12.1688 18.7927 11.8251C20.5123 11.4814 22.2951 11.6544 23.9164 12.3224C25.5378 12.9904 26.9251 14.1235 27.9034 15.5788C28.8818 17.034 29.4074 18.7464 29.414 20.4999C29.4173 21.6715 29.189 22.8321 28.7422 23.9151C28.2954 24.9981 27.6389 25.9821 26.8105 26.8105C25.9821 27.6389 24.9981 28.2954 23.9151 28.7422C22.8321 29.189 21.6715 29.4173 20.4999 29.414ZM20.4999 12.6897C18.9436 12.6897 17.4223 13.1512 16.1283 14.0158C14.8343 14.8804 13.8257 16.1094 13.2301 17.5472C12.6346 18.9851 12.4787 20.5672 12.7823 22.0936C13.086 23.62 13.8354 25.0221 14.9359 26.1226C16.0363 27.223 17.4384 27.9725 18.9648 28.2761C20.4912 28.5797 22.0734 28.4239 23.5112 27.8283C24.949 27.2327 26.178 26.2242 27.0426 24.9302C27.9072 23.6361 28.3687 22.1148 28.3687 20.5585C28.3754 19.5205 28.1768 18.4915 27.7844 17.5305C27.392 16.5696 26.8136 15.6957 26.0823 14.959C25.3511 14.2223 24.4815 13.6374 23.5235 13.2379C22.5654 12.8384 21.5379 12.6322 20.4999 12.6311V12.6897Z" fill="#547BFE"/>
<path d="M20.5 26.1778C19.6556 26.2003 18.8366 25.8874 18.2223 25.3075C17.6079 24.7277 17.2483 23.9281 17.2221 23.0838C17.2128 23.0119 17.219 22.9388 17.2402 22.8695C17.2614 22.8002 17.2971 22.7362 17.3449 22.6817C17.3928 22.6273 17.4517 22.5837 17.5178 22.5538C17.5838 22.5239 17.6555 22.5085 17.728 22.5085C17.8005 22.5085 17.8721 22.5239 17.9382 22.5538C18.0042 22.5837 18.0632 22.6273 18.111 22.6817C18.1589 22.7362 18.1946 22.8002 18.2158 22.8695C18.237 22.9388 18.2432 23.0119 18.2339 23.0838C18.2621 23.6583 18.516 24.1985 18.9404 24.5868C19.3647 24.9752 19.9253 25.1803 20.5 25.1576C21.0748 25.1803 21.6354 24.9752 22.0597 24.5868C22.4841 24.1985 22.738 23.6583 22.7662 23.0838C22.7401 22.5077 22.4872 21.9654 22.0626 21.5753C21.638 21.1851 21.0762 20.9789 20.5 21.0016C19.6564 21.0264 18.8374 20.7153 18.2228 20.1368C17.6082 19.5583 17.2483 18.7596 17.2221 17.9159C17.2483 17.0716 17.6079 16.272 18.2223 15.6922C18.8366 15.1123 19.6556 14.7994 20.5 14.8219C21.3445 14.7994 22.1635 15.1123 22.7778 15.6922C23.3922 16.272 23.7518 17.0716 23.778 17.9159C23.7622 18.0389 23.7021 18.1519 23.609 18.2338C23.5159 18.3157 23.3961 18.3609 23.2721 18.3609C23.1481 18.3609 23.0284 18.3157 22.9352 18.2338C22.8421 18.1519 22.782 18.0389 22.7662 17.9159C22.7401 17.3399 22.4872 16.7976 22.0626 16.4075C21.638 16.0173 21.0762 15.8111 20.5 15.8338C19.9239 15.8111 19.3621 16.0173 18.9375 16.4075C18.5129 16.7976 18.26 17.3399 18.2339 17.9159C18.2621 18.4905 18.516 19.0307 18.9404 19.419C19.3647 19.8074 19.9253 20.0125 20.5 19.9898C21.3445 19.9672 22.1635 20.2801 22.7778 20.86C23.3922 21.4398 23.7518 22.2394 23.778 23.0838C23.7518 23.9281 23.3922 24.7277 22.7778 25.3075C22.1635 25.8874 21.3445 26.2003 20.5 26.1778Z" fill="#547BFE"/>
<path d="M21.5118 27.2232C21.3765 27.2232 21.2468 27.1695 21.1511 27.0738C21.0555 26.9782 21.0017 26.8484 21.0017 26.7131V14.2869C21.0017 14.1517 21.0555 14.0219 21.1511 13.9263C21.2468 13.8306 21.3765 13.7769 21.5118 13.7769C21.6471 13.7769 21.7768 13.8306 21.8725 13.9263C21.9682 14.0219 22.0219 14.1517 22.0219 14.2869V26.7131C22.0219 26.8484 21.9682 26.9782 21.8725 27.0738C21.7768 27.1695 21.6471 27.2232 21.5118 27.2232Z" fill="#547BFE"/>
<path d="M19.4881 27.2232C19.3529 27.2232 19.2231 27.1695 19.1275 27.0738C19.0318 26.9782 18.9781 26.8484 18.9781 26.7131V14.2869C18.9688 14.215 18.975 14.142 18.9962 14.0727C19.0173 14.0034 19.0531 13.9393 19.1009 13.8849C19.1488 13.8305 19.2077 13.7869 19.2738 13.757C19.3398 13.7271 19.4115 13.7117 19.484 13.7117C19.5565 13.7117 19.6281 13.7271 19.6942 13.757C19.7602 13.7869 19.8191 13.8305 19.867 13.8849C19.9149 13.9393 19.9506 14.0034 19.9718 14.0727C19.993 14.142 19.9991 14.215 19.9899 14.2869V26.7131C19.991 26.7797 19.9788 26.8459 19.9541 26.9077C19.9294 26.9695 19.8926 27.0258 19.8459 27.0733C19.7992 27.1208 19.7435 27.1585 19.6821 27.1842C19.6207 27.21 19.5547 27.2232 19.4881 27.2232Z" fill="#547BFE"/>
</g>
<defs>
<clipPath id="clip0_189_113">
<rect width="29" height="29" fill="white" transform="translate(6 6)"/>
</clipPath>
</defs>
</svg>
