<svg width="396" height="396" viewBox="0 0 396 396" fill="none" xmlns="http://www.w3.org/2000/svg">
<g filter="url(#filter0_b_801_5096)">
<circle cx="198.243" cy="197.735" r="197.735" fill="white" fill-opacity="0.62"/>
<circle cx="198.243" cy="197.735" r="197.235" stroke="white" stroke-opacity="0.25"/>
</g>
<path fill-rule="evenodd" clip-rule="evenodd" d="M155.564 204.895C155.564 206.098 155.731 206.371 156.608 206.751L156.594 206.741C158.952 207.779 161.423 208.159 164.605 208.159C167.513 208.159 170.592 207.672 173.333 205.923C177.285 203.36 178.491 199.594 178.491 196.432C178.491 191.254 176.137 187.488 169.494 182.528L167.959 181.383C163.404 177.948 162.139 176.039 162.139 173.53C162.139 170.256 164.615 167.912 168.675 167.912C172.244 167.912 173.833 169.549 174.657 170.587C175.809 172.005 176.083 173.695 176.083 174.187C176.083 174.84 176.25 175.171 176.633 175.171C177.074 175.171 177.241 174.733 177.241 173.534C177.241 170.509 177.352 168.836 177.416 167.868V167.868V167.868C177.443 167.473 177.461 167.196 177.461 166.991C177.461 166.607 177.187 166.446 176.691 166.339C175.265 165.959 172.96 165.413 169.391 165.413C161.762 165.413 156.711 169.72 156.711 175.717C156.711 180.136 158.8 183.951 164.836 188.642L167.361 190.611C171.921 194.152 172.74 196.661 172.74 199.331C172.74 202.225 170.327 205.548 165.385 205.548C161.982 205.548 158.746 204.076 157.54 200.043C157.265 199.117 157.045 197.972 157.045 197.261C157.045 196.827 156.991 196.335 156.496 196.335C156.059 196.335 155.893 196.934 155.839 197.753L155.826 197.955C155.756 199.051 155.564 202.092 155.564 204.895ZM113.789 199.005C113.731 197.967 113.677 193.768 113.677 187.989L113.686 187.994V181.12C113.686 176.813 113.686 172.068 113.74 170.212C113.74 169.613 113.902 169.335 114.397 169.121C114.834 168.901 116.869 168.741 117.967 168.741C122.247 168.741 128.504 169.393 133.554 174.192C135.912 176.428 138.825 180.896 138.825 187.824C138.825 193.446 137.726 198.406 134.211 201.407C130.916 204.242 127.185 205.334 121.585 205.334C117.246 205.334 115.108 204.189 114.392 203.151C113.956 202.547 113.843 200.369 113.789 199.005ZM106.704 170.426C106.817 172.17 106.817 173.7 106.817 181.987V181.997V191.595C106.817 196.613 106.817 200.92 106.548 203.209C106.327 204.793 106.047 205.991 104.949 206.21C104.459 206.323 103.797 206.43 102.978 206.43C102.321 206.43 102.1 206.59 102.1 206.868C102.1 207.248 102.483 207.409 103.199 207.409C103.729 207.409 104.336 207.384 104.964 207.358C105.636 207.33 106.332 207.302 106.984 207.302C108.303 207.248 109.504 207.248 110.112 207.248C111.397 207.248 113.162 207.389 115.091 207.543L115.091 207.543L115.491 207.575C117.58 207.735 119.825 207.901 121.801 207.901C131.955 207.901 137.663 204.028 140.188 201.465C143.257 198.357 146.169 193.12 146.169 186.25C146.169 179.756 143.59 175.23 140.845 172.394C134.858 166.178 125.689 166.178 118.83 166.178C116.916 166.178 114.946 166.232 113.298 166.278C112.112 166.311 111.093 166.339 110.382 166.339C109.736 166.339 108.751 166.31 107.609 166.277L107.609 166.277C106.036 166.232 104.165 166.178 102.478 166.178C101.654 166.178 101.277 166.285 101.277 166.665C101.277 167.045 101.605 167.157 102.208 167.157C102.978 167.157 103.91 167.206 104.346 167.318C106.16 167.698 106.597 168.57 106.704 170.426ZM201.687 180.794C201.849 180.794 201.883 180.696 201.849 180.599L198.877 172.492C198.872 172.475 198.867 172.457 198.862 172.44L198.862 172.439L198.862 172.439C198.829 172.321 198.795 172.2 198.706 172.2C198.603 172.2 198.544 172.361 198.51 172.492L195.47 180.565C195.44 180.696 195.47 180.794 195.607 180.794H201.682H201.687ZM194.945 182.436C194.783 182.436 194.715 182.504 194.651 182.694L192.871 187.39C192.543 188.209 192.376 188.998 192.376 189.393C192.376 189.982 192.67 190.411 193.695 190.411H194.19C194.587 190.411 194.685 190.474 194.685 190.674C194.685 190.937 194.484 191 194.121 191C193.59 191 192.965 190.976 192.345 190.951L192.345 190.951C191.736 190.927 191.131 190.903 190.625 190.903C190.511 190.903 190.253 190.913 189.9 190.926L189.9 190.926L189.9 190.926C189.13 190.955 187.907 191 186.728 191C186.301 191 186.1 190.937 186.1 190.674C186.1 190.474 186.232 190.411 186.497 190.411C186.796 190.411 187.257 190.377 187.522 190.348C189.037 190.148 189.664 189.032 190.326 187.39L198.613 166.777C199.015 165.827 199.206 165.462 199.534 165.462C199.838 165.462 200.035 165.759 200.363 166.514C200.698 167.281 201.841 170.131 203.209 173.539L203.21 173.54C205.066 178.167 207.336 183.824 208.556 186.694C209.811 189.646 210.767 190.104 211.464 190.275C211.959 190.372 212.459 190.406 212.851 190.406C213.121 190.406 213.283 190.44 213.283 190.669C213.283 190.932 212.988 190.996 211.763 190.996H211.763C210.537 190.996 208.164 190.996 205.526 190.932C205.475 190.929 205.425 190.927 205.376 190.924C204.866 190.896 204.531 190.878 204.531 190.669C204.531 190.469 204.663 190.406 204.992 190.377C205.227 190.309 205.457 190.016 205.296 189.622L202.653 182.665C202.584 182.504 202.491 182.436 202.319 182.436H194.955H194.945ZM215.166 189.485C215.166 190.211 215.274 190.372 215.798 190.601L215.794 190.61C217.211 191.234 218.701 191.463 220.613 191.463C222.369 191.463 224.217 191.171 225.869 190.118C228.247 188.579 228.973 186.313 228.973 184.408C228.973 181.29 227.556 179.025 223.555 176.043L222.633 175.352C219.897 173.286 219.133 172.136 219.133 170.626C219.133 168.658 220.618 167.245 223.065 167.245C225.212 167.245 226.168 168.229 226.659 168.852C227.355 169.705 227.517 170.723 227.517 171.016C227.517 171.405 227.615 171.605 227.845 171.605C228.11 171.605 228.208 171.342 228.208 170.621C228.208 168.806 228.277 167.801 228.317 167.217C228.334 166.977 228.345 166.809 228.345 166.684C228.345 166.455 228.174 166.358 227.88 166.29C227.017 166.056 225.629 165.73 223.482 165.73C218.897 165.73 215.857 168.321 215.857 171.931C215.857 174.592 217.112 176.881 220.746 179.707L222.266 180.891C225.006 183.025 225.502 184.535 225.502 186.143C225.502 187.882 224.05 189.884 221.079 189.884C219.03 189.884 217.083 188.993 216.357 186.567C216.191 186.011 216.063 185.32 216.063 184.891C216.063 184.628 216.024 184.335 215.73 184.335C215.47 184.335 215.367 184.696 215.338 185.188L215.332 185.275V185.275C215.29 185.902 215.166 187.771 215.166 189.485ZM236.22 190.601C235.695 190.372 235.587 190.211 235.587 189.485C235.587 187.89 235.691 186.162 235.735 185.424L235.744 185.266L235.749 185.188C235.788 184.696 235.886 184.335 236.151 184.335C236.445 184.335 236.479 184.628 236.479 184.891C236.479 185.32 236.612 186.011 236.774 186.567C237.504 188.993 239.456 189.884 241.495 189.884C244.471 189.884 245.923 187.882 245.923 186.143C245.923 184.535 245.428 183.025 242.692 180.891L241.172 179.707C237.534 176.881 236.283 174.592 236.283 171.931C236.283 168.321 239.323 165.73 243.908 165.73C246.055 165.73 247.443 166.056 248.306 166.29C248.6 166.358 248.767 166.455 248.767 166.684C248.767 166.809 248.755 166.977 248.74 167.217V167.217C248.701 167.801 248.634 168.806 248.634 170.621C248.634 171.342 248.536 171.605 248.271 171.605C248.041 171.605 247.943 171.405 247.943 171.016C247.943 170.723 247.776 169.705 247.085 168.852C246.59 168.229 245.629 167.245 243.486 167.245C241.044 167.245 239.559 168.658 239.559 170.626C239.559 172.136 240.319 173.286 243.054 175.352L243.981 176.043C247.977 179.025 249.394 181.29 249.394 184.408C249.394 186.313 248.669 188.579 246.295 190.118C244.643 191.171 242.795 191.463 241.039 191.463C239.122 191.463 237.637 191.234 236.22 190.61V190.601ZM258.456 175.703V175.707L258.465 175.702V181.48V181.481C258.465 184.501 258.465 187.088 258.299 188.466C258.166 189.416 258 190.142 257.343 190.274C257.043 190.342 256.641 190.405 256.151 190.405C255.759 190.405 255.626 190.508 255.626 190.668C255.626 190.897 255.852 191 256.279 191C256.598 191 256.962 190.985 257.34 190.97C257.746 190.953 258.167 190.936 258.563 190.936C259.353 190.897 260.078 190.897 260.441 190.897C261.432 190.897 262.452 190.936 263.873 191C264.236 191.007 264.624 191.017 265.041 191.028C266.264 191.059 267.741 191.097 269.59 191.097C270.851 191.097 271.145 191.097 271.375 190.244C271.537 189.587 271.807 187.355 271.807 186.6C271.807 186.274 271.807 186.011 271.537 186.011C271.307 186.011 271.243 186.142 271.174 186.503C270.944 187.852 270.547 188.539 269.689 188.934C268.83 189.329 267.443 189.329 266.585 189.329C263.216 189.329 262.687 188.836 262.623 186.571C262.599 185.893 262.609 184.175 262.617 182.837C262.62 182.291 262.623 181.808 262.623 181.485V178.893C262.623 178.698 262.657 178.566 262.819 178.566C263.614 178.566 266.879 178.601 267.512 178.664C268.727 178.795 269.198 179.287 269.36 179.945C269.429 180.248 269.45 180.549 269.468 180.816L269.468 180.817L269.468 180.817C269.475 180.928 269.482 181.032 269.492 181.129C269.492 181.29 269.551 181.421 269.787 181.421C270.086 181.421 270.086 181.061 270.086 180.798C270.086 180.679 270.112 180.266 270.142 179.805L270.142 179.805C270.169 179.38 270.199 178.914 270.213 178.601C270.301 177.487 270.389 176.884 270.438 176.546L270.438 176.546L270.438 176.545C270.463 176.374 270.478 176.271 270.478 176.204C270.478 176.004 270.38 175.936 270.247 175.936C270.086 175.936 269.957 176.086 269.741 176.338L269.718 176.364C269.424 176.691 268.924 176.788 268.134 176.856C267.374 176.92 263.574 176.92 262.854 176.92C262.653 176.92 262.623 176.793 262.623 176.559V168.253C262.623 168.024 262.687 167.926 262.854 167.926C263.511 167.926 266.982 167.99 267.541 168.058C269.193 168.253 269.522 168.647 269.752 169.237C269.919 169.631 269.953 170.192 269.953 170.421C269.953 170.718 270.017 170.879 270.247 170.879C270.478 170.879 270.547 170.684 270.576 170.518C270.623 170.254 270.667 169.503 270.7 168.946L270.7 168.944L270.7 168.943C270.715 168.679 270.728 168.46 270.738 168.355C270.81 167.344 270.906 166.835 270.962 166.54V166.54V166.54C270.99 166.395 271.007 166.302 271.007 166.226C271.007 166.055 270.968 165.929 270.806 165.929C270.711 165.929 270.604 165.962 270.497 165.996C270.422 166.02 270.347 166.043 270.277 166.055C270.012 166.124 269.487 166.187 268.855 166.255C268.232 166.289 261.657 166.289 260.598 166.289C260.261 166.289 259.763 166.271 259.184 166.25C258.972 166.242 258.749 166.234 258.519 166.226C258.113 166.226 257.675 166.218 257.23 166.209C256.768 166.201 256.297 166.192 255.842 166.192C255.347 166.192 255.117 166.26 255.117 166.484C255.117 166.708 255.313 166.776 255.68 166.776C256.141 166.776 256.7 166.811 256.965 166.879C258.058 167.113 258.318 167.634 258.387 168.75C258.456 169.802 258.456 170.717 258.456 175.703ZM284.466 168.024L280 168.156C278.083 168.224 277.293 168.385 276.793 169.106C276.465 169.598 276.298 169.992 276.234 170.255C276.165 170.514 276.072 170.645 275.871 170.645C275.641 170.645 275.572 170.484 275.572 170.124C275.572 169.598 276.205 166.611 276.268 166.348C276.366 165.924 276.465 165.725 276.666 165.725C276.765 165.725 276.876 165.773 277.021 165.836C277.254 165.937 277.575 166.077 278.083 166.119C279.039 166.217 280.294 166.28 281.387 166.28H293.562C294.577 166.28 295.281 166.19 295.778 166.127L295.842 166.119C296.001 166.088 296.136 166.06 296.25 166.036C296.491 165.985 296.641 165.954 296.734 165.954C296.964 165.954 296.999 166.153 296.999 166.641C296.999 166.969 296.977 167.651 296.953 168.368L296.953 168.369C296.928 169.163 296.901 170 296.901 170.445C296.866 170.777 296.798 170.972 296.597 170.972C296.337 170.972 296.268 170.806 296.234 170.319L296.204 169.953C296.136 169.101 295.248 168.185 292.306 168.117L288.6 168.014V181.471C288.6 184.491 288.6 187.078 288.761 188.491C288.86 189.412 289.061 190.133 290.046 190.264C290.512 190.333 291.233 190.396 291.733 190.396C292.096 190.396 292.257 190.493 292.257 190.659C292.257 190.888 291.997 190.99 291.635 190.99C290.311 190.99 289.023 190.955 288.01 190.926C287.354 190.908 286.813 190.893 286.452 190.893C286.125 190.893 285.551 190.911 284.898 190.932L284.898 190.932C284.037 190.959 283.038 190.99 282.284 190.99C281.858 190.99 281.623 190.893 281.623 190.659C281.623 190.498 281.755 190.396 282.152 190.396C282.647 190.396 283.049 190.333 283.344 190.264C284.01 190.133 284.202 189.412 284.305 188.457C284.466 187.078 284.466 184.486 284.466 181.466V168.024ZM106.813 231.959H288.6C289.418 231.959 290.085 231.297 290.085 230.483C290.085 229.669 289.418 229.007 288.6 229.007H106.813C105.989 229.007 105.322 229.669 105.322 230.483C105.322 231.297 105.989 231.959 106.813 231.959Z" fill="black"/>
<defs>
<filter id="filter0_b_801_5096" x="-151.595" y="-152.104" width="699.676" height="699.676" filterUnits="userSpaceOnUse" color-interpolation-filters="sRGB">
<feFlood flood-opacity="0" result="BackgroundImageFix"/>
<feGaussianBlur in="BackgroundImage" stdDeviation="76.0518"/>
<feComposite in2="SourceAlpha" operator="in" result="effect1_backgroundBlur_801_5096"/>
<feBlend mode="normal" in="SourceGraphic" in2="effect1_backgroundBlur_801_5096" result="shape"/>
</filter>
</defs>
</svg>
