<svg width="396" height="396" viewBox="0 0 396 396" fill="none" xmlns="http://www.w3.org/2000/svg">
<g filter="url(#filter0_b_801_5108)">
<circle cx="197.735" cy="197.735" r="197.735" fill="white" fill-opacity="0.62"/>
<circle cx="197.735" cy="197.735" r="197.235" stroke="white" stroke-opacity="0.25"/>
</g>
<path fill-rule="evenodd" clip-rule="evenodd" d="M119.945 186.234C119.015 184.221 117.698 182.488 115.987 181.023C114.276 179.557 112.184 178.372 109.725 177.453C107.265 176.535 104.508 175.922 101.467 175.603C103.565 175.147 105.502 174.45 107.284 173.512C109.066 172.581 110.596 171.415 111.868 170.021C113.146 168.627 114.141 167.018 114.857 165.181C115.574 163.351 115.935 161.319 115.935 159.104C115.935 156.531 115.516 154.212 114.676 152.147C113.837 150.082 112.423 148.33 110.428 146.884C108.44 145.438 105.799 144.337 102.513 143.582C99.2269 142.826 95.1208 142.442 90.1947 142.442H68.147V121.682H66.6233V142.448H66.5458V146.545L66.6233 146.558V209.208L66.5458 209.221V213.363H66.6233V234.396H68.147V213.363H71.4913C74.7774 213.363 78.3541 213.415 82.2343 213.52C86.1144 213.624 90.0075 213.676 93.9199 213.676C98.8137 213.676 102.991 213.174 106.445 212.171C109.905 211.168 112.733 209.755 114.935 207.944C117.136 206.127 118.75 203.944 119.783 201.385C120.816 198.825 121.333 196.017 121.333 192.949C121.333 190.481 120.868 188.246 119.945 186.234ZM77.1985 147.21H88.0513C91.1954 147.21 93.8489 147.464 96.0182 147.978C98.1874 148.493 99.95 149.268 101.312 150.304C102.674 151.346 103.662 152.642 104.276 154.192C104.882 155.743 105.192 157.56 105.192 159.638C105.192 161.827 104.941 163.8 104.431 165.559C103.921 167.318 103.049 168.829 101.809 170.08C100.57 171.33 98.8847 172.301 96.7542 172.991C94.6237 173.682 91.9314 174.02 88.684 174.02H77.1985V147.21ZM109.537 199.724C108.905 201.665 107.885 203.313 106.471 204.668C105.057 206.022 103.21 207.071 100.944 207.814C98.6717 208.556 95.8955 208.921 92.6093 208.921C90.8274 208.921 89.0262 208.914 87.212 208.895C85.3978 208.882 83.7386 208.836 82.2343 208.765C80.4847 208.732 78.8125 208.673 77.2049 208.608V178.782H89.788C93.4551 178.782 96.5992 179.075 99.2204 179.655C101.842 180.234 103.979 181.12 105.638 182.299C107.297 183.478 108.524 184.97 109.305 186.768C110.093 188.566 110.486 190.702 110.486 193.164C110.486 195.626 110.17 197.782 109.544 199.724H109.537ZM173.68 273.413H174.364L174.732 275.341C174.861 275.511 175.055 275.674 175.287 275.83C175.526 275.98 175.791 276.117 176.088 276.234C176.378 276.351 176.688 276.442 177.011 276.514C177.334 276.579 177.65 276.612 177.96 276.612C178.496 276.612 178.961 276.54 179.355 276.397C179.749 276.253 180.071 276.051 180.33 275.791C180.588 275.537 180.775 275.231 180.904 274.885C181.033 274.54 181.098 274.156 181.098 273.746C181.098 273.231 180.988 272.814 180.775 272.475C180.562 272.143 180.278 271.857 179.929 271.629C179.581 271.401 179.18 271.205 178.741 271.042C178.573 270.983 178.404 270.923 178.233 270.863L178.23 270.862L178.227 270.861L178.222 270.859C177.944 270.76 177.662 270.66 177.373 270.56C176.901 270.398 176.449 270.215 176.004 270.02C175.559 269.824 175.165 269.57 174.816 269.264C174.467 268.958 174.183 268.58 173.97 268.131C173.757 267.681 173.647 267.121 173.647 266.463C173.647 265.91 173.751 265.408 173.964 264.959C174.177 264.509 174.48 264.125 174.894 263.806C175.3 263.493 175.804 263.245 176.398 263.076C176.998 262.907 177.67 262.822 178.432 262.822C179.129 262.822 179.794 262.868 180.414 262.959C181.04 263.05 181.614 263.154 182.144 263.278V266.248H181.459L181.091 264.503C180.782 264.275 180.401 264.086 179.949 263.936C179.503 263.786 178.993 263.714 178.432 263.714C177.909 263.714 177.463 263.773 177.089 263.884C176.714 263.995 176.404 264.151 176.152 264.346C175.901 264.542 175.726 264.776 175.604 265.037C175.487 265.304 175.423 265.59 175.423 265.897C175.423 266.359 175.533 266.743 175.746 267.049C175.959 267.356 176.243 267.616 176.591 267.831C176.94 268.046 177.34 268.235 177.786 268.391C177.992 268.464 178.201 268.537 178.412 268.612L178.426 268.617L178.434 268.62C178.672 268.704 178.912 268.788 179.155 268.873C179.619 269.036 180.078 269.232 180.523 269.44C180.969 269.648 181.369 269.915 181.718 270.235C182.066 270.554 182.344 270.951 182.563 271.42C182.776 271.883 182.886 272.456 182.886 273.14C182.886 273.824 182.783 274.397 182.589 274.931C182.389 275.465 182.086 275.921 181.679 276.299C181.272 276.683 180.769 276.97 180.162 277.172C179.555 277.374 178.838 277.471 178.012 277.471C177.573 277.471 177.147 277.452 176.721 277.406C176.301 277.361 175.901 277.309 175.526 277.237C175.152 277.165 174.81 277.087 174.493 276.996C174.177 276.905 173.899 276.814 173.667 276.716V273.413H173.68ZM73.4094 276.69L71.5953 276.404V263.813L73.4094 263.532V262.972H67.7538V263.532L69.568 263.813V276.404L67.7538 276.69V277.257H73.4094V276.69ZM97.8654 263.539L99.7635 263.819V273.544L92.481 262.972H88.1941V263.532L90.0083 263.813V276.404L88.1941 276.69V277.257H93.0169V276.69L91.1188 276.404V264.412L99.8475 277.257H100.874V263.819L102.688 263.539V262.979H97.8654V263.539ZM131.96 262.977V263.537L130.404 263.818L124.716 277.588H124.18L118.428 263.818L116.833 263.537V262.977H122.553V263.537L120.655 263.818L124.942 274.331L129.216 263.818L127.357 263.537V262.977H131.96ZM148.043 276.404L146.229 276.69L146.241 276.703V277.27H157.546L157.746 273.499H157.049L156.449 276.143C156.339 276.163 156.177 276.189 155.958 276.208C155.732 276.228 155.467 276.247 155.157 276.26C154.847 276.273 154.499 276.286 154.111 276.299C153.724 276.312 153.311 276.312 152.872 276.312H150.083V270.489H153.905L154.234 272.215H154.912V267.825H154.234L153.905 269.525H150.083V263.943H152.394H153.079C153.375 263.943 153.685 263.949 154.015 263.962C154.35 263.969 154.673 263.988 154.996 264.008C155.312 264.028 155.583 264.054 155.809 264.08L156.152 266.392H156.849V262.972H146.229V263.532L148.043 263.813V276.404ZM200.963 276.69V277.257H200.97H207.503V276.69L205.257 276.404V263.91H205.773C206.18 263.91 206.58 263.917 206.968 263.923C207.361 263.936 207.723 263.949 208.052 263.969C208.381 263.988 208.672 264.008 208.924 264.028C209.169 264.054 209.356 264.08 209.485 264.106L209.77 266.327H210.486V262.972H198.026V266.327H198.736L199.02 264.106C199.278 264.047 199.724 264.001 200.35 263.956C200.976 263.91 201.751 263.891 202.674 263.891H203.21V276.404L200.963 276.69ZM233.347 277.255H232.979L227.795 264.977V276.409L229.693 276.695V277.262H224.87V276.695L226.684 276.409V263.818L224.87 263.537V262.977H229.157L233.76 273.842L238.783 262.977H242.838V263.537L241.023 263.818V276.409L242.838 276.695V277.262H237.098V276.695L238.996 276.409V264.977L233.347 277.255ZM259.314 276.404L257.5 276.69L257.512 276.703V277.27H268.817L269.017 273.499H268.32L267.72 276.143C267.61 276.163 267.448 276.189 267.229 276.208C267.003 276.228 266.738 276.247 266.428 276.26C266.119 276.273 265.77 276.286 265.383 276.299C264.995 276.312 264.582 276.312 264.143 276.312H261.354V270.489H265.176L265.505 272.215H266.183V267.825H265.505L265.176 269.525H261.354V263.943H263.665H264.35C264.538 263.943 264.729 263.948 264.929 263.954C265.045 263.957 265.163 263.96 265.286 263.962C265.621 263.969 265.944 263.988 266.267 264.008C266.583 264.028 266.855 264.054 267.08 264.08L267.423 266.392H268.12V262.972H257.5V263.532L259.314 263.813V276.404ZM295.681 263.819L293.783 263.539V262.979H298.606V263.539L296.792 263.819V277.257H295.765L287.036 264.412V276.404L288.934 276.69V277.257H284.112V276.69L285.926 276.404V263.813L284.112 263.532V262.972H288.399L295.681 273.544V263.819ZM315.831 276.69V277.257H315.838H322.371V276.69L320.125 276.404V263.91H320.641C321.048 263.91 321.448 263.917 321.835 263.923C322.229 263.936 322.591 263.949 322.92 263.969C323.132 263.981 323.327 263.994 323.507 264.007C323.607 264.014 323.702 264.021 323.792 264.028C324.037 264.054 324.224 264.08 324.353 264.106L324.637 266.327H325.354V262.972H312.894V266.327H313.604L313.888 264.106C314.146 264.047 314.592 264.001 315.218 263.956C315.844 263.91 316.619 263.891 317.542 263.891H318.078V276.404L315.831 276.69ZM256.111 178.489C257.835 180.091 259.236 182.045 260.302 184.358L260.321 184.364C261.386 186.67 261.922 189.627 261.922 192.904C261.922 196.18 261.425 199.144 260.431 201.788C259.436 204.433 257.932 206.693 255.924 208.582C253.916 210.465 251.398 211.911 248.377 212.914C245.356 213.924 241.798 214.425 237.711 214.425C235.542 214.425 233.412 214.321 231.313 214.106C229.222 213.891 227.246 213.611 225.393 213.259C223.54 212.907 221.829 212.497 220.254 212.041C218.963 211.663 217.852 211.285 216.845 210.921H216.832C216.141 210.686 215.057 210.289 214.069 209.924V234.396H212.545V121.682H214.069V197.02C216.722 200.16 221.055 204.257 223.301 205.684C224.302 206.315 226.691 207.67 228.143 208.25C229.59 208.83 231.12 209.292 232.727 209.624C234.328 209.957 235.904 210.126 237.44 210.126C240.1 210.126 242.405 209.761 244.361 209.038C246.318 208.322 247.932 207.325 249.21 206.055C250.482 204.785 251.437 203.287 252.063 201.56C252.69 199.834 253.006 197.945 253.006 195.9C253.006 193.366 252.477 191.269 251.411 189.608C250.346 187.953 248.952 186.553 247.221 185.406C245.491 184.26 243.522 183.289 241.32 182.495C239.119 181.7 236.859 180.899 234.535 180.091C232.204 179.283 229.945 178.385 227.743 177.394C225.542 176.411 223.579 175.16 221.849 173.643C220.118 172.125 218.717 170.249 217.652 168.008C216.587 165.774 216.057 163.012 216.057 159.736C216.057 156.987 216.58 154.492 217.626 152.251C218.672 150.011 220.209 148.109 222.236 146.539C224.263 144.976 226.749 143.764 229.706 142.917C232.663 142.07 236.026 141.647 239.797 141.647C243.251 141.647 246.537 141.875 249.649 142.331C252.754 142.793 255.621 143.321 258.242 143.92V158.674H254.833L253 150.004C251.463 148.877 249.571 147.946 247.338 147.203C245.104 146.467 242.586 146.096 239.79 146.096C237.208 146.096 234.974 146.376 233.108 146.943C231.236 147.503 229.686 148.271 228.466 149.242C227.246 150.213 226.336 151.359 225.742 152.681C225.148 154.004 224.851 155.424 224.851 156.941C224.851 159.234 225.387 161.136 226.452 162.654C227.517 164.165 228.912 165.461 230.642 166.536C232.372 167.611 234.341 168.536 236.562 169.311L237.296 169.57L237.298 169.57C239.279 170.27 241.306 170.985 243.374 171.721C245.704 172.548 247.97 173.486 250.191 174.522C252.406 175.564 254.381 176.886 256.111 178.489ZM331.107 184.358C330.041 182.045 328.64 180.091 326.917 178.489C325.186 176.886 323.211 175.564 320.996 174.522C318.775 173.486 316.509 172.548 314.179 171.721C312.109 170.984 310.081 170.269 308.098 169.569L308.095 169.568L307.367 169.311C305.147 168.536 303.177 167.611 301.447 166.536C299.717 165.461 298.322 164.165 297.257 162.654C296.192 161.136 295.656 159.234 295.656 156.941C295.656 155.424 295.953 154.004 296.547 152.681C297.141 151.359 298.051 150.213 299.271 149.242C300.492 148.271 302.041 147.503 303.913 146.943C305.779 146.376 308.013 146.096 310.596 146.096C313.391 146.096 315.909 146.467 318.143 147.203C320.377 147.946 322.268 148.877 323.805 150.004L325.638 158.674H329.047V143.92C326.426 143.321 323.559 142.793 320.454 142.331C317.342 141.875 314.056 141.647 310.602 141.647C306.832 141.647 303.468 142.07 300.511 142.917C297.554 143.764 295.068 144.976 293.041 146.539C291.014 148.109 289.477 150.011 288.432 152.251C287.386 154.492 286.863 156.987 286.863 159.736C286.863 163.012 287.392 165.774 288.457 168.008C289.523 170.249 290.924 172.125 292.654 173.643C294.384 175.16 296.347 176.411 298.548 177.394C300.75 178.385 303.01 179.283 305.34 180.091C307.664 180.899 309.924 181.7 312.126 182.495C314.327 183.289 316.296 184.26 318.027 185.406C319.757 186.553 321.151 187.953 322.217 189.608C323.282 191.269 323.811 193.366 323.811 195.9C323.811 197.945 323.495 199.834 322.869 201.56C322.242 203.287 321.287 204.785 320.015 206.055C318.737 207.325 317.123 208.322 315.166 209.038C313.21 209.761 310.905 210.126 308.245 210.126C306.709 210.126 305.134 209.957 303.532 209.624C301.925 209.292 300.395 208.83 298.949 208.25C297.496 207.67 295.107 206.315 294.106 205.684C291.86 204.257 287.528 200.16 284.874 197.02V121.682H283.351V234.396H284.874V209.924C285.862 210.289 286.947 210.686 287.637 210.921H287.65C288.657 211.285 289.768 211.663 291.059 212.041C292.634 212.497 294.345 212.907 296.198 213.259C298.051 213.611 300.027 213.891 302.119 214.106C304.217 214.321 306.347 214.425 308.517 214.425C312.603 214.425 316.161 213.924 319.182 212.914C322.204 211.911 324.722 210.465 326.729 208.582C328.737 206.693 330.242 204.433 331.236 201.788C332.23 199.144 332.727 196.18 332.727 192.904C332.727 189.627 332.191 186.67 331.126 184.364L331.107 184.358ZM170.903 141.868L195.798 209.136L195.805 209.129L204.714 210.556V213.357H174.99V210.556L184.423 209.129L177.456 188.663H149.779L142.703 209.129H142.709L141.27 213.298V234.396H139.746V121.682H141.27V197.118L160.942 141.868H170.903ZM163.408 149.483L151.348 183.908H175.829L163.408 149.483Z" fill="black"/>
<defs>
<filter id="filter0_b_801_5108" x="-152.104" y="-152.104" width="699.676" height="699.676" filterUnits="userSpaceOnUse" color-interpolation-filters="sRGB">
<feFlood flood-opacity="0" result="BackgroundImageFix"/>
<feGaussianBlur in="BackgroundImage" stdDeviation="76.0518"/>
<feComposite in2="SourceAlpha" operator="in" result="effect1_backgroundBlur_801_5108"/>
<feBlend mode="normal" in="SourceGraphic" in2="effect1_backgroundBlur_801_5108" result="shape"/>
</filter>
</defs>
</svg>
