<svg width="396" height="396" viewBox="0 0 396 396" fill="none" xmlns="http://www.w3.org/2000/svg">
<g filter="url(#filter0_b_801_5014)">
<circle cx="198.183" cy="197.735" r="197.735" fill="white" fill-opacity="0.62"/>
<circle cx="198.183" cy="197.735" r="197.235" stroke="white" stroke-opacity="0.25"/>
</g>
<path d="M110.633 240.189C98.7518 252.031 79.3149 252.031 67.4335 240.189L45.4838 218.312C33.6024 206.471 33.6024 187.09 45.4838 175.257L67.4251 153.38C79.3065 141.539 98.7434 141.539 110.625 153.38L132.574 175.257C144.456 187.099 144.456 206.471 132.574 218.312L110.625 240.189H110.633Z" fill="#C50018"/>
<path d="M76.0087 228.91C74.2632 228.91 72.8381 227.548 72.7706 225.808C72.7369 224.943 73.0404 224.119 73.6223 223.48C74.2126 222.841 75.0136 222.472 75.8822 222.438C77.6699 222.354 79.1877 223.749 79.2552 225.539C79.3311 227.321 77.9397 228.834 76.1436 228.901C76.1014 228.901 76.0508 228.901 76.0087 228.901V228.91Z" fill="white"/>
<path d="M87.8236 169.206C86.0444 169.206 84.6193 169.761 83.464 170.904C80.9764 173.366 79.6694 178.459 79.7875 185.233C79.9308 193.587 81.9209 209.967 88.5151 218.405C89.586 219.775 90.7328 220.867 91.9302 221.649C93.0939 222.414 94.3925 223.162 96.4248 223.162C96.9729 223.162 97.5716 223.103 98.1871 222.994C101.965 222.086 106.704 217.901 110.22 212.32C110.76 211.471 111.679 210.967 112.691 210.967C113.239 210.967 113.77 211.118 114.234 211.413C114.892 211.824 115.347 212.471 115.524 213.219C115.693 213.976 115.567 214.757 115.153 215.413C110.701 222.473 104.824 227.423 99.4267 228.667C99.4099 228.667 99.3508 228.683 99.2918 228.7C98.3052 228.885 97.3355 228.969 96.4079 228.969C92.9337 228.969 90.4799 227.65 88.7259 226.498C86.9972 225.355 85.3782 223.843 83.9278 221.977C74.6436 210.101 74.0112 187.838 73.969 185.334C73.8679 179.409 74.728 171.383 79.3658 166.786C81.6342 164.542 84.4675 163.407 87.8068 163.407H88.3464C91.6857 163.407 94.5274 164.542 96.7958 166.786C101.442 171.383 102.294 179.409 102.193 185.334C102.083 191.503 100.953 203.462 94.5275 214.186C94.0046 215.06 93.0433 215.598 92.023 215.598C91.5002 215.598 90.9858 215.455 90.5389 215.186C89.1644 214.371 88.709 212.581 89.527 211.211C94.0215 203.706 96.1971 195.453 96.3657 185.242C96.4838 178.468 95.1768 173.375 92.6892 170.912C91.5339 169.769 90.1088 169.214 88.338 169.214H87.8236V169.206Z" fill="white"/>
<path d="M294.238 206.924H287.652V198.788C287.382 198.923 286.994 199.032 286.505 199.116C286.008 199.2 285.46 199.276 284.844 199.343C284.228 199.41 283.579 199.46 282.905 199.494C282.222 199.528 281.555 199.544 280.915 199.544H266.428C265.373 199.544 264.547 199.242 263.957 198.628C263.358 198.015 263.063 197.258 263.063 196.342V185.719H273.983V178.752H263.063V175.449H280.611V189.022H269.792V194.561C269.792 195.065 269.935 195.477 270.205 195.779C270.475 196.082 270.905 196.233 271.479 196.233H280.915C281.901 196.233 283.048 196.191 284.355 196.107C285.662 196.023 286.758 195.779 287.644 195.367V187.997H282.188V184.643H287.644V173.76H294.229V206.907L294.238 206.924ZM277.449 214.193C277.449 214.395 277.449 214.597 277.474 214.798C277.491 215 277.55 215.185 277.651 215.336C277.752 215.488 277.921 215.614 278.157 215.715C278.393 215.815 278.739 215.866 279.177 215.866H305.647V219.219H274.118C273.233 219.219 272.566 219.085 272.103 218.816C271.647 218.547 271.302 218.202 271.082 217.799C270.863 217.387 270.737 216.942 270.703 216.454C270.669 215.967 270.652 215.496 270.652 215.059V204.638H277.44V214.193H277.449ZM298.361 173.768H305.04V206.915H298.361V173.777V173.768Z" fill="#C50018"/>
<path d="M351.992 183.134H359.792V186.538H351.992V197.161H345.153V194.514C344.816 194.682 344.335 194.824 343.728 194.942C343.113 195.06 342.455 195.169 341.738 195.27C341.03 195.371 340.313 195.446 339.596 195.497C338.879 195.547 338.247 195.572 337.707 195.572H315.673C314.788 195.572 314.029 195.278 313.405 194.682C312.772 194.085 312.46 193.371 312.46 192.522V175.032H337.96V178.386H319.291V183.521H337.96V186.874H319.291V190.639C319.291 191.085 319.384 191.454 319.569 191.757C319.755 192.059 320.21 192.211 320.918 192.211H337.699C338.205 192.211 338.804 192.186 339.487 192.135C340.17 192.085 340.844 192.026 341.527 191.959C342.202 191.891 342.868 191.799 343.517 191.681C344.167 191.564 344.706 191.421 345.145 191.244V173.755H351.984V183.109L351.992 183.134ZM345.153 207.944V203.271H317.562V199.867H351.992V211.205H324.392V215.171C324.392 215.953 324.78 216.34 325.565 216.34H352.759V219.693H321.846C320.412 219.693 319.358 219.323 318.658 218.575C317.958 217.827 317.613 216.827 317.613 215.575V207.952H345.153V207.944Z" fill="#C50018"/>
<path d="M247.961 219.231H254.782V173.78H247.961V219.239V219.231ZM237.032 190.177H228.498V194.228H237.032V203.784C235.371 204.439 233.87 204.792 231.661 204.792H221.963C221.052 204.792 220.319 204.061 220.319 203.153V180.521H232.774V177.251H213.252V204.809C213.252 206.607 214.72 208.07 216.524 208.07H231.661C233.963 208.07 235.826 207.658 237.032 206.902V219.222H243.854V173.78H237.032V190.185V190.177Z" fill="#C50018"/>
<path d="M185.957 197.773V193.294H200.958V190.041H172.692C171.782 190.041 171.04 189.31 171.04 188.402V185.545H200.343V174.535H164.007V177.805H193.293V182.259H164.007V190.033C164.007 191.84 165.466 193.294 167.27 193.294H178.882V197.773H160.187V201.051H204.77V197.773H185.957ZM186.151 203.143H178.249C176.158 211.783 165.887 216.136 162.118 216.683L164.083 219.582C167.936 219.12 176.715 215.977 182.196 210.001C187.694 215.977 196.464 219.12 200.317 219.582L202.282 216.683C198.513 216.136 188.242 211.783 186.151 203.143Z" fill="#C50018"/>
<defs>
<filter id="filter0_b_801_5014" x="-151.655" y="-152.104" width="699.676" height="699.676" filterUnits="userSpaceOnUse" color-interpolation-filters="sRGB">
<feFlood flood-opacity="0" result="BackgroundImageFix"/>
<feGaussianBlur in="BackgroundImage" stdDeviation="76.0518"/>
<feComposite in2="SourceAlpha" operator="in" result="effect1_backgroundBlur_801_5014"/>
<feBlend mode="normal" in="SourceGraphic" in2="effect1_backgroundBlur_801_5014" result="shape"/>
</filter>
</defs>
</svg>
