<svg width="397" height="397" viewBox="0 0 397 397" fill="none" xmlns="http://www.w3.org/2000/svg">
<g filter="url(#filter0_b_801_4998)">
<circle cx="198.675" cy="198.537" r="197.735" fill="white" fill-opacity="0.62"/>
<circle cx="198.675" cy="198.537" r="197.235" stroke="white" stroke-opacity="0.25"/>
</g>
<path d="M50.5364 205.352C44.3511 205.352 40.367 202.804 38.6831 201.304L42.3921 194.33C43.2395 194.952 46.1561 197.317 50.2613 197.317C53.8051 197.317 55.6541 195.574 55.6541 193.209C55.6541 189.978 51.7801 189.283 47.3997 186.796C42.7883 184.309 39.5856 181.005 39.5856 174.226C39.5856 167.021 45.0335 162.413 52.0552 162.413C58.3505 162.413 61.6633 164.595 63.3472 165.961L59.8033 172.934C58.5156 172.069 55.5881 170.447 52.6165 170.447C49.81 170.447 48.1811 171.691 48.1811 174.178C48.1811 177.104 51.1087 177.908 55.0928 179.908C60.0344 182.334 64.3597 185.138 64.3597 192.672C64.3597 200.207 59.187 205.364 50.5364 205.364V205.352Z" fill="black"/>
<path d="M74.639 179.408H66.0435V171.874H91.8852V179.408H83.2346V204.621H74.639V179.408Z" fill="black"/>
<path d="M94.2407 188.235C94.2407 179.518 99.9197 171.24 110.705 171.24C121.491 171.24 127.225 179.018 127.225 188.101C127.225 197.184 121.887 205.157 110.816 205.157C99.7437 205.157 94.2407 197.257 94.2407 188.223V188.235ZM118.178 188.235C118.178 183.066 116.153 178.713 110.816 178.713C105.478 178.713 103.343 183.005 103.343 188.113C103.343 193.222 105.533 197.696 110.705 197.696C116.153 197.696 118.178 193.283 118.178 188.235Z" fill="black"/>
<path d="M132.892 171.874H141.433L150.084 185.126C152.274 188.418 153.561 191.161 153.561 191.161H153.671C153.671 191.161 153.44 188.052 153.44 185.504V171.874H161.023V204.608H153.33L143.777 189.978C141.477 186.613 140.409 184.504 140.409 184.504H140.299C140.299 184.504 140.464 186.991 140.464 189.552V204.608H132.881V171.874H132.892Z" fill="black"/>
<path d="M168.464 171.874H188.406V179.152H176.828V184.626H187.163V191.283H176.828V197.317H188.736V204.596H168.453V171.874H168.464Z" fill="black"/>
<path d="M195.306 171.874H207.049C212.838 171.874 218.231 173.739 218.231 180.213C218.231 184.76 215.865 186.869 212.728 187.674V187.796C216.327 188.235 219.475 190.783 219.475 195.574C219.475 202.231 214.137 204.596 206.95 204.596H195.317V171.874H195.306ZM206.037 185.065C208.964 185.065 210.142 183.943 210.142 181.639C210.142 179.457 208.909 178.408 206.213 178.408H203.693V185.065H206.048H206.037ZM206.653 197.891C209.746 197.891 211.144 197.025 211.144 194.465C211.144 191.904 209.68 190.917 206.928 190.917H203.671V197.891H206.642H206.653Z" fill="black"/>
<path d="M224.923 171.874H236.557C244.426 171.874 248.971 175.239 248.971 181.834C248.971 187.369 245.603 189.735 242.511 190.734V190.795C243.468 191.478 245.042 193.16 246.561 196.086L251.337 204.608H242.291L237.118 195.27C235.654 192.782 234.983 192.405 233.86 192.405H233.464V204.608H224.923V171.874ZM236.391 186.187C239.143 186.187 240.497 184.943 240.497 182.456C240.497 179.969 239.198 178.725 236.061 178.725H233.475V186.187H236.402H236.391Z" fill="black"/>
<path d="M255.994 171.874H264.534V204.608H255.994V171.874Z" fill="black"/>
<path d="M272.227 171.874H283.068C295.208 171.874 300.765 178.226 300.765 187.808C300.765 197.391 295.031 204.608 282.782 204.608H272.216V171.874H272.227ZM283.464 197.208C289.077 197.208 291.84 194.16 291.84 188.064C291.84 181.968 289.143 179.225 283.189 179.225H280.768V197.208H283.464Z" fill="black"/>
<path d="M304.804 188.235C304.804 179.213 311.21 171.24 322.557 171.24C327.609 171.24 330.701 172.545 332.891 174.044L329.348 181.018C327.884 180.079 325.528 179.031 322.381 179.031C316.823 179.031 313.84 182.261 313.84 188.113C313.84 193.965 316.361 197.757 321.875 197.757C323.669 197.757 325.077 197.318 325.639 197.074V192.344H320.752V185.748H333.783V202.183C331.879 203.365 328.5 205.17 321.764 205.17C310.583 205.17 304.793 197.269 304.793 188.235H304.804Z" fill="black"/>
<path d="M339.758 171.874H359.701V179.152H348.134V184.626H358.468V191.283H348.134V197.317H360.042V204.596H339.758V171.874Z" fill="black"/>
<path d="M360.285 234.662C360.285 234.662 314.435 227.908 199.06 227.908C83.6857 227.908 37.0649 234.662 37.0649 234.662V219.447H360.285V234.662Z" fill="url(#paint0_linear_801_4998)"/>
<defs>
<filter id="filter0_b_801_4998" x="-151.163" y="-151.301" width="699.676" height="699.676" filterUnits="userSpaceOnUse" color-interpolation-filters="sRGB">
<feFlood flood-opacity="0" result="BackgroundImageFix"/>
<feGaussianBlur in="BackgroundImage" stdDeviation="76.0518"/>
<feComposite in2="SourceAlpha" operator="in" result="effect1_backgroundBlur_801_4998"/>
<feBlend mode="normal" in="SourceGraphic" in2="effect1_backgroundBlur_801_4998" result="shape"/>
</filter>
<linearGradient id="paint0_linear_801_4998" x1="317.824" y1="227.043" x2="18.1569" y2="227.043" gradientUnits="userSpaceOnUse">
<stop stop-color="#303030"/>
<stop offset="0.52" stop-color="#989898"/>
<stop offset="1" stop-color="#303030"/>
</linearGradient>
</defs>
</svg>
