<svg width="396" height="396" viewBox="0 0 396 396" fill="none" xmlns="http://www.w3.org/2000/svg">
<g filter="url(#filter0_b_801_5057)">
<circle cx="198.236" cy="197.735" r="197.735" fill="white" fill-opacity="0.62"/>
<circle cx="198.236" cy="197.735" r="197.235" stroke="white" stroke-opacity="0.25"/>
</g>
<path d="M124.511 189.215C124.511 189.828 124.31 190.331 123.917 190.744C123.525 191.156 122.992 191.358 122.318 191.358H119.31V187.666C119.31 186.207 120.014 185.472 121.413 185.472H124.511V189.215ZM124.511 194.235V215.039C124.511 216.015 124.34 216.699 124.008 217.091C123.676 217.484 123.002 217.685 121.996 217.685H119.3V196.337C119.3 195.704 119.481 195.19 119.843 194.808C120.205 194.426 120.728 194.235 121.392 194.235H124.491H124.511Z" fill="#CC2128"/>
<path d="M143.997 217.683V202.04C143.997 201.275 143.826 200.622 143.474 200.058C143.121 199.495 142.458 199.183 141.492 199.123C141.069 199.092 140.556 199.082 139.963 199.103C139.369 199.123 138.755 199.153 138.112 199.213C137.478 199.274 136.844 199.334 136.22 199.394C135.597 199.455 135.043 199.515 134.55 199.575V214.907C134.55 215.883 134.399 216.587 134.098 217.03C133.796 217.472 133.142 217.694 132.136 217.694H129.349V195.571C130.265 195.39 131.261 195.209 132.337 195.028C133.414 194.847 134.51 194.696 135.627 194.575C136.733 194.455 137.82 194.364 138.886 194.304C139.953 194.243 140.918 194.223 141.804 194.264C144.268 194.324 146.119 195.028 147.367 196.366C148.614 197.704 149.238 199.434 149.238 201.567V214.937C149.238 215.913 149.077 216.617 148.755 217.06C148.433 217.502 147.769 217.724 146.773 217.724H143.987L143.997 217.683Z" fill="#CC2128"/>
<path d="M167.488 213.67C167.005 215.219 166.321 216.326 165.435 216.98C164.55 217.634 163.524 217.955 162.337 217.955C161.15 217.955 160.104 217.634 159.279 217C158.454 216.366 157.83 215.36 157.408 213.992L151.522 196.014C151.462 195.803 151.412 195.592 151.361 195.381C151.311 195.169 151.321 194.988 151.382 194.837C151.502 194.445 151.885 194.244 152.518 194.244H156.12L162.005 212.312C162.096 212.583 162.236 212.714 162.438 212.704C162.639 212.694 162.759 212.563 162.83 212.312L167.025 198.902C167.146 198.449 167.317 197.956 167.548 197.423C167.779 196.89 168.061 196.387 168.393 195.914C168.725 195.441 169.117 195.049 169.56 194.727C170.003 194.405 170.506 194.244 171.089 194.244H175.244C174.731 194.666 174.147 195.351 173.514 196.296C172.87 197.242 172.377 198.318 172.005 199.535L167.488 213.68V213.67Z" fill="#CC2128"/>
<path d="M185.415 213.299C186.109 213.36 186.924 213.38 187.829 213.37C188.744 213.349 189.549 213.329 190.243 213.299C190.696 213.299 191.229 213.259 191.813 213.188C192.406 213.108 192.99 213.028 193.573 212.937C194.147 212.846 194.68 212.736 195.173 212.595C195.666 212.454 196.038 212.313 196.31 212.162C196.43 212.102 196.491 212.132 196.491 212.253V214.758C196.491 215.462 196.259 216.025 195.807 216.468C195.354 216.911 194.68 217.263 193.795 217.544C193.312 217.695 192.738 217.816 192.084 217.907C191.431 217.997 190.736 218.068 190.012 218.108C189.278 218.158 188.533 218.178 187.749 218.178H185.535C182.95 218.178 180.847 217.444 179.238 215.965C177.628 214.486 176.773 212.434 176.682 209.788C176.622 208.661 176.592 207.404 176.592 206.026C176.592 204.647 176.622 203.39 176.682 202.263C176.773 199.889 177.638 197.947 179.288 196.449C180.928 194.94 183.413 194.195 186.722 194.195H188.362C189.579 194.195 190.726 194.366 191.803 194.698C192.879 195.03 193.825 195.503 194.63 196.117C195.434 196.72 196.068 197.475 196.521 198.37C196.974 199.265 197.205 200.261 197.205 201.358V203.229C197.205 205.231 196.591 206.7 195.384 207.635C194.167 208.561 192.266 209.024 189.68 209.024H181.743V209.798C181.743 210.16 181.793 210.543 181.904 210.935C182.014 211.327 182.195 211.7 182.477 212.032C182.749 212.364 183.121 212.655 183.594 212.897C184.067 213.138 184.67 213.279 185.394 213.309L185.415 213.299ZM192.165 201.619C192.165 200.825 191.803 200.201 191.068 199.728C190.334 199.255 189.398 199.024 188.241 199.024H186.732C185.787 199.024 185.002 199.125 184.358 199.316C183.714 199.517 183.211 199.768 182.829 200.09C182.447 200.412 182.175 200.764 182.004 201.137C181.833 201.519 181.753 201.901 181.753 202.303V204.175H189.6C190.334 204.175 190.938 204.134 191.42 204.044C191.903 203.953 192.155 203.621 192.155 203.038V201.619H192.165Z" fill="#CC2128"/>
<path d="M205.031 212.806C207.134 212.836 209.246 212.836 211.369 212.806C212.134 212.775 212.788 212.655 213.331 212.443C213.874 212.232 214.156 211.769 214.156 211.075C214.156 210.683 214.035 210.341 213.794 210.049C213.552 209.757 213.109 209.496 212.476 209.254L205.263 206.699C203.502 206.035 202.255 205.19 201.54 204.194C200.826 203.188 200.464 201.991 200.464 200.593C200.464 198.651 201.148 197.122 202.516 196.025C203.884 194.929 205.786 194.355 208.22 194.295C208.955 194.265 209.729 194.255 210.574 194.255C211.419 194.255 212.194 194.275 212.918 194.295C214.105 194.355 215.142 194.315 216.047 194.184C216.942 194.044 217.717 193.812 218.351 193.48V196.398C218.351 196.911 218.21 197.353 217.938 197.726C217.667 198.088 217.294 198.4 216.822 198.641C216.349 198.882 215.816 199.064 215.202 199.164C214.588 199.275 213.955 199.305 213.291 199.275C212.496 199.245 211.651 199.225 210.735 199.225C209.82 199.225 208.975 199.245 208.18 199.275C207.325 199.305 206.721 199.426 206.359 199.637C205.997 199.848 205.796 200.17 205.766 200.593C205.735 201.045 205.846 201.387 206.088 201.599C206.329 201.81 206.752 202.041 207.365 202.283L214.387 204.788C215.816 205.301 217.013 206.055 217.989 207.051C218.964 208.037 219.437 209.415 219.407 211.176C219.407 212.393 219.176 213.409 218.703 214.234C218.23 215.059 217.596 215.723 216.791 216.246C215.987 216.759 215.041 217.131 213.965 217.363C212.888 217.594 211.741 217.705 210.524 217.705H205.182C204.297 217.705 203.583 217.614 203.019 217.433C202.456 217.252 202.013 217.001 201.691 216.679C201.369 216.357 201.158 216.015 201.058 215.632C200.947 215.25 200.897 214.848 200.897 214.425V212.413C200.897 212.232 200.987 212.172 201.168 212.232C201.591 212.383 202.174 212.514 202.929 212.625C203.673 212.735 204.377 212.796 205.051 212.826L205.031 212.806Z" fill="#CC2128"/>
<path d="M230.716 194.234H232.587C233.191 194.234 233.855 194.204 234.569 194.144C235.283 194.083 235.947 193.852 236.551 193.46V196.196C236.551 196.749 236.44 197.202 236.209 197.564C235.977 197.926 235.696 198.228 235.364 198.449C235.032 198.681 234.649 198.842 234.227 198.932C233.804 199.023 233.402 199.073 233.04 199.073H230.716V211.115C230.716 211.91 230.937 212.453 231.38 212.755C231.822 213.057 232.436 213.208 233.231 213.208C234.207 213.208 234.991 213.147 235.605 213.026C236.209 212.906 236.681 212.765 237.023 212.614C237.144 212.554 237.205 212.584 237.205 212.705V215.26C237.205 216.326 236.792 217.081 235.977 217.523C235.152 217.966 234.126 218.187 232.879 218.187H232.054C230.102 218.187 228.533 217.644 227.336 216.547C226.128 215.451 225.535 213.751 225.535 211.437V199.073H221.662V196.286C221.662 195.643 221.833 195.15 222.185 194.777C222.537 194.415 223.06 194.234 223.754 194.234H225.535V190.079C225.535 189.566 225.676 189.114 225.967 188.731C226.259 188.349 226.722 188.158 227.356 188.158H230.736V194.224L230.716 194.234Z" fill="#CC2128"/>
<path d="M270.181 214.948C270.181 215.924 270.03 216.618 269.728 217.051C269.426 217.473 268.772 217.684 267.766 217.684H264.98V201.488C264.98 200.693 264.809 200.13 264.457 199.778C264.105 199.425 263.581 199.224 262.887 199.164C262.153 199.104 261.348 199.124 260.473 199.234C259.588 199.345 258.783 199.466 258.058 199.627C258.209 200.049 258.29 200.542 258.29 201.085V214.958C258.29 215.934 258.129 216.628 257.807 217.061C257.485 217.483 256.821 217.695 255.825 217.695H253.038L253.079 201.498C253.079 200.552 252.817 199.908 252.304 199.556C251.791 199.204 251.117 199.043 250.292 199.073C249.678 199.104 249.014 199.164 248.28 199.254C247.546 199.345 246.882 199.436 246.268 199.526V214.898C246.268 215.874 246.117 216.578 245.815 217.021C245.514 217.463 244.86 217.684 243.854 217.684H241.067V195.693C241.731 195.512 242.485 195.331 243.331 195.17C244.166 194.999 245.001 194.848 245.835 194.717C246.67 194.577 247.465 194.466 248.21 194.375C248.954 194.285 249.568 194.234 250.061 194.234C251.157 194.174 252.133 194.214 252.998 194.345C253.863 194.486 254.678 194.727 255.443 195.1C255.896 194.979 256.449 194.868 257.083 194.758C257.716 194.647 258.39 194.556 259.095 194.486C259.799 194.405 260.503 194.345 261.217 194.305C261.932 194.255 262.565 194.234 263.109 194.234C265.302 194.234 267.022 194.808 268.29 195.965C269.547 197.122 270.181 198.973 270.181 201.528V214.938V214.948Z" fill="#CC2128"/>
<path d="M283.319 213.299C284.024 213.36 284.828 213.38 285.734 213.37C286.649 213.349 287.454 213.329 288.148 213.299C288.601 213.299 289.124 213.259 289.718 213.188C290.311 213.108 290.895 213.028 291.478 212.937C292.052 212.846 292.585 212.736 293.078 212.595C293.561 212.454 293.943 212.313 294.214 212.162C294.335 212.102 294.396 212.132 294.396 212.253V214.758C294.396 215.462 294.164 216.025 293.711 216.468C293.259 216.911 292.585 217.263 291.699 217.544C291.217 217.695 290.643 217.816 289.989 217.907C289.335 217.997 288.641 218.068 287.917 218.108C287.182 218.158 286.438 218.178 285.653 218.178H283.44C280.855 218.178 278.752 217.444 277.143 215.965C275.533 214.486 274.678 212.434 274.587 209.788C274.527 208.661 274.497 207.404 274.497 206.026C274.497 204.647 274.527 203.39 274.587 202.263C274.678 199.889 275.543 197.947 277.183 196.449C278.823 194.94 281.307 194.195 284.617 194.195H286.257C287.474 194.195 288.621 194.366 289.697 194.698C290.774 195.03 291.72 195.503 292.524 196.117C293.329 196.72 293.963 197.475 294.416 198.37C294.868 199.265 295.1 200.261 295.1 201.358V203.229C295.1 205.231 294.486 206.7 293.279 207.635C292.062 208.561 290.16 209.024 287.575 209.024H279.637V209.798C279.637 210.16 279.688 210.543 279.798 210.935C279.909 211.327 280.09 211.7 280.372 212.032C280.643 212.364 281.016 212.655 281.488 212.897C281.961 213.138 282.565 213.279 283.289 213.309L283.319 213.299ZM290.07 201.619C290.07 200.825 289.708 200.201 288.973 199.728C288.239 199.255 287.303 199.024 286.146 199.024H284.637C283.692 199.024 282.907 199.125 282.263 199.316C281.629 199.517 281.116 199.768 280.734 200.09C280.352 200.412 280.08 200.764 279.909 201.137C279.738 201.519 279.658 201.901 279.658 202.303V204.175H287.504C288.239 204.175 288.842 204.134 289.325 204.044C289.808 203.953 290.06 203.621 290.06 203.038V201.619H290.07Z" fill="#CC2128"/>
<path d="M314.475 217.683V202.04C314.475 201.275 314.304 200.622 313.952 200.058C313.6 199.495 312.946 199.183 311.97 199.123C311.548 199.092 311.035 199.082 310.441 199.103C309.848 199.123 309.234 199.153 308.59 199.213C307.956 199.274 307.322 199.334 306.699 199.394C306.075 199.455 305.522 199.515 305.029 199.575V214.907C305.029 215.883 304.878 216.587 304.576 217.03C304.274 217.472 303.62 217.694 302.614 217.694H299.828V195.571C300.743 195.39 301.739 195.209 302.816 195.028C303.892 194.847 304.989 194.696 306.095 194.575C307.202 194.455 308.288 194.364 309.355 194.304C310.421 194.243 311.387 194.223 312.272 194.264C314.737 194.324 316.588 195.028 317.835 196.366C319.083 197.704 319.706 199.434 319.706 201.567V214.937C319.706 215.913 319.545 216.617 319.224 217.06C318.902 217.502 318.238 217.724 317.242 217.724H314.455L314.475 217.683Z" fill="#CC2128"/>
<path d="M332.03 194.234H333.901C334.505 194.234 335.169 194.204 335.883 194.144C336.598 194.083 337.261 193.852 337.865 193.46V196.196C337.865 196.749 337.754 197.202 337.523 197.564C337.292 197.926 337.01 198.228 336.678 198.449C336.346 198.681 335.964 198.842 335.541 198.932C335.119 199.023 334.716 199.073 334.354 199.073H332.03V211.115C332.03 211.91 332.252 212.453 332.694 212.755C333.137 213.057 333.751 213.208 334.545 213.208C335.521 213.208 336.306 213.147 336.919 213.026C337.523 212.906 337.996 212.765 338.338 212.614C338.459 212.554 338.519 212.584 338.519 212.705V215.26C338.519 216.326 338.107 217.081 337.292 217.523C336.467 217.966 335.441 218.187 334.193 218.187H333.368C331.417 218.187 329.847 217.644 328.65 216.547C327.443 215.451 326.849 213.751 326.849 211.437V199.073H322.976V196.286C322.976 195.643 323.147 195.15 323.499 194.777C323.851 194.415 324.375 194.234 325.069 194.234H326.849V190.079C326.849 189.566 326.99 189.114 327.282 188.731C327.574 188.349 328.036 188.158 328.67 188.158H332.05V194.224L332.03 194.234Z" fill="#CC2128"/>
<path d="M81.6152 210.984L73.7784 201.337L85.1664 187.313H78.9493C76.1627 187.313 74.2512 188.158 72.5511 190.15L66.5553 197.534V177.243H60.5293C59.1108 177.243 57.964 178.4 57.964 179.818V217.654H63.99C65.4084 217.654 66.5553 216.507 66.5553 215.089V205.029L71.4344 211.014L75.5792 216.115C76.4142 217.161 77.5208 217.654 78.6475 217.654H87.0476L81.6152 210.994V210.984Z" fill="url(#paint0_linear_801_5057)"/>
<path d="M84.9351 216.386C84.4422 215.843 82.5106 213.307 80.0862 210.45C76.877 206.668 73.5974 202.332 72.7826 201.366C74.0401 199.827 82.2088 189.757 83.1847 188.57L83.6173 188.067H78.6275C76.6557 188.067 74.4827 189.063 73.2051 190.541L66.0423 199.354C66.0423 199.354 66.0021 199.404 65.9417 199.404C65.8612 199.404 65.8109 199.344 65.8109 199.264V177.997H60.5395C59.5435 177.997 58.7286 178.811 58.7286 179.817V216.899H64.0001C64.9961 216.899 65.8109 216.084 65.8109 215.078V203.096C65.8109 203.016 65.8713 202.966 65.9417 202.966C65.992 202.966 66.0322 202.996 66.0423 203.006L72.0884 210.45L76.2935 215.611C77.0078 216.416 77.9434 216.909 78.8085 216.909H85.418L84.9452 216.396L84.9351 216.386Z" fill="url(#paint1_linear_801_5057)"/>
<path d="M97.0667 217.654C92.419 217.654 89.2198 214.465 89.2198 209.827V179.808C89.2198 178.4 90.3768 177.243 91.7852 177.243H97.8111V208.208C97.8111 209.475 98.8473 210.511 100.115 210.511H106.252V215.079C106.252 216.487 105.095 217.644 103.676 217.644H97.0667V217.654Z" fill="url(#paint2_linear_801_5057)"/>
<path d="M97.0671 216.899C92.8318 216.899 89.9747 214.042 89.9747 209.817V179.808C89.9747 178.802 90.7896 177.987 91.7956 177.987H97.0771V208.207C97.0771 209.897 98.4453 211.266 100.125 211.266H105.507V215.078C105.507 216.084 104.693 216.899 103.687 216.899H97.0771H97.0671Z" fill="url(#paint3_linear_801_5057)"/>
<path style="mix-blend-mode:screen" opacity="0.5" d="M58.818 190.361H58.7174V216.859H58.818V190.361Z" fill="url(#paint4_radial_801_5057)"/>
<path style="mix-blend-mode:screen" opacity="0.25" d="M59.3619 216.899H64.06C64.905 216.899 65.7903 216.145 65.7903 214.998V203.198H65.6897V214.998C65.6897 216.024 64.8447 216.779 64.06 216.779H59.3619V216.889V216.899Z" fill="url(#paint5_radial_801_5057)"/>
<path style="mix-blend-mode:screen" opacity="0.25" d="M90.0753 190.15V179.687C90.0753 178.902 90.8902 178.098 91.6749 178.098C91.6749 178.098 96.7452 178.098 96.9564 178.098L97.0671 177.987H91.6749C90.8298 177.987 89.9747 178.852 89.9747 179.687V190.15H90.0854H90.0753Z" fill="url(#paint6_radial_801_5057)"/>
<path style="mix-blend-mode:screen" opacity="0.25" d="M90.0751 209.989V190.231H89.9645V209.989H90.0751Z" fill="url(#paint7_radial_801_5057)"/>
<path style="mix-blend-mode:screen" opacity="0.5" d="M96.9469 207.855C96.9469 208.238 96.9771 208.61 97.0475 208.942C97.1984 209.616 97.5606 210.169 98.0334 210.592C98.6068 211.085 99.3613 211.376 100.377 211.376H105.468V211.266C104.713 211.266 100.307 211.266 100.307 211.266C99.1098 211.266 98.3352 210.833 97.7919 210.199C97.4801 209.827 97.2487 209.415 97.138 208.912C97.0676 208.58 97.0576 208.217 97.0576 207.845H96.9469V207.855Z" fill="url(#paint8_radial_801_5057)"/>
<path style="mix-blend-mode:screen" opacity="0.25" d="M103.596 216.8H96.9663C92.902 216.8 90.1254 214.043 90.1254 209.989H90.0148C90.0148 214.093 92.8417 216.9 96.9663 216.9H103.596V216.789V216.8Z" fill="url(#paint9_radial_801_5057)"/>
<path style="mix-blend-mode:multiply" d="M89.9747 196.991H97.0671V192.454H89.9747V196.991Z" fill="url(#paint10_linear_801_5057)"/>
<path style="mix-blend-mode:screen" opacity="0.25" d="M72.7316 201.367C72.7316 201.367 82.2383 189.667 83.2947 188.379H83.1538C82.8822 188.711 72.631 201.327 72.631 201.327L72.7316 201.367Z" fill="url(#paint11_radial_801_5057)"/>
<path style="mix-blend-mode:multiply" d="M78.5777 187.998C76.6764 187.998 74.5537 188.953 73.3264 190.392L66.1837 199.184L72.8032 201.307C72.8032 201.307 82.4408 189.446 83.5072 188.139C82.2195 188.139 78.5777 187.998 78.5777 187.998Z" fill="url(#paint12_linear_801_5057)"/>
<path style="mix-blend-mode:screen" opacity="0.25" d="M76.3937 215.713C77.0174 216.417 77.9631 216.9 78.7779 216.9H84.5826L84.482 216.789H78.7779C78.124 216.789 77.0476 216.367 76.3937 215.703V215.713Z" fill="url(#paint13_radial_801_5057)"/>
<path style="mix-blend-mode:screen" opacity="0.25" d="M65.157 177.997H60.459C59.6139 177.997 58.7286 178.751 58.7286 179.898V191.96H58.8393V179.898C58.8393 178.872 59.6843 178.107 60.459 178.107H65.157V177.997Z" fill="url(#paint14_radial_801_5057)"/>
<path d="M100.699 188.308C95.8399 188.308 78.2147 188.308 78.2147 188.308C75.1665 188.308 73.1545 189.385 71.736 191.115L67.38 196.477C68.9594 195.27 71.1324 194.556 73.3557 194.556H100.709C104.18 194.556 107.51 193.499 107.51 190.763C107.51 188.027 107.198 186.528 107.198 186.528C107.198 186.528 105.568 188.298 100.709 188.298L100.699 188.308Z" fill="url(#paint15_linear_801_5057)"/>
<path d="M67.4303 196.427L72.4603 190.23C73.6977 188.711 75.3275 187.303 78.7881 187.303H100.689C105.317 187.303 106.936 185.663 106.946 185.643L107.479 185.08V190.784C107.479 190.784 107.55 191.599 106.795 192.424C105.739 193.58 103.687 194.174 100.689 194.174H73.2953C69.8045 194.174 67.4303 196.427 67.4303 196.427Z" fill="url(#paint16_linear_801_5057)"/>
<path style="mix-blend-mode:screen" opacity="0.7" d="M107.46 191.066C107.43 191.619 106.705 194.044 100.7 194.044H73.7285C71.2336 194.044 69.3021 194.748 67.4611 196.378L67.4108 196.428C68.8594 195.271 70.64 194.154 73.7285 194.154H100.7C107.47 194.154 107.46 191.076 107.46 191.076V191.066Z" fill="url(#paint17_radial_801_5057)"/>
<defs>
<filter id="filter0_b_801_5057" x="-151.602" y="-152.104" width="699.676" height="699.676" filterUnits="userSpaceOnUse" color-interpolation-filters="sRGB">
<feFlood flood-opacity="0" result="BackgroundImageFix"/>
<feGaussianBlur in="BackgroundImage" stdDeviation="76.0518"/>
<feComposite in2="SourceAlpha" operator="in" result="effect1_backgroundBlur_801_5057"/>
<feBlend mode="normal" in="SourceGraphic" in2="effect1_backgroundBlur_801_5057" result="shape"/>
</filter>
<linearGradient id="paint0_linear_801_5057" x1="72.5108" y1="229.052" x2="72.5108" y2="166.992" gradientUnits="userSpaceOnUse">
<stop stop-color="#434243"/>
<stop offset="1" stop-color="#2B2F2F"/>
</linearGradient>
<linearGradient id="paint1_linear_801_5057" x1="72.0683" y1="169.275" x2="72.0683" y2="225.722" gradientUnits="userSpaceOnUse">
<stop stop-color="#333333"/>
<stop offset="1"/>
</linearGradient>
<linearGradient id="paint2_linear_801_5057" x1="97.7407" y1="218.348" x2="97.7407" y2="177.102" gradientUnits="userSpaceOnUse">
<stop stop-color="#434243"/>
<stop offset="1" stop-color="#2B2F2F"/>
</linearGradient>
<linearGradient id="paint3_linear_801_5057" x1="97.7411" y1="177.987" x2="97.7411" y2="216.185" gradientUnits="userSpaceOnUse">
<stop stop-color="#333333"/>
<stop offset="1"/>
</linearGradient>
<radialGradient id="paint4_radial_801_5057" cx="0" cy="0" r="1" gradientUnits="userSpaceOnUse" gradientTransform="translate(58.4297 202.309) scale(10.6944 10.6944)">
<stop stop-color="white"/>
<stop offset="1" stop-color="#262424"/>
</radialGradient>
<radialGradient id="paint5_radial_801_5057" cx="0" cy="0" r="1" gradientUnits="userSpaceOnUse" gradientTransform="translate(64.7954 215.861) scale(5.52398 5.52398)">
<stop stop-color="white"/>
<stop offset="1" stop-color="#262424"/>
</radialGradient>
<radialGradient id="paint6_radial_801_5057" cx="0" cy="0" r="1" gradientUnits="userSpaceOnUse" gradientTransform="translate(89.8349 177.91) scale(8.19041 8.19041)">
<stop stop-color="white"/>
<stop offset="1" stop-color="#262424"/>
</radialGradient>
<radialGradient id="paint7_radial_801_5057" cx="0" cy="0" r="1" gradientUnits="userSpaceOnUse" gradientTransform="translate(89.634 198.994) scale(7.98019 7.98015)">
<stop stop-color="white"/>
<stop offset="1" stop-color="#262424"/>
</radialGradient>
<radialGradient id="paint8_radial_801_5057" cx="0" cy="0" r="1" gradientUnits="userSpaceOnUse" gradientTransform="translate(99.058 210.595) scale(4.02353 4.02352)">
<stop stop-color="white"/>
<stop offset="1" stop-color="#262424"/>
</radialGradient>
<radialGradient id="paint9_radial_801_5057" cx="0" cy="0" r="1" gradientUnits="userSpaceOnUse" gradientTransform="translate(95.5211 215.967) scale(7.39717 7.39717)">
<stop stop-color="white"/>
<stop offset="1" stop-color="#262424"/>
</radialGradient>
<linearGradient id="paint10_linear_801_5057" x1="93.5259" y1="196.981" x2="93.5259" y2="195.311" gradientUnits="userSpaceOnUse">
<stop stop-color="white"/>
<stop offset="1" stop-color="#252324"/>
</linearGradient>
<radialGradient id="paint11_radial_801_5057" cx="0" cy="0" r="1" gradientUnits="userSpaceOnUse" gradientTransform="translate(74.7919 197.713) scale(3.76548)">
<stop stop-color="white"/>
<stop offset="1" stop-color="#262424"/>
</radialGradient>
<linearGradient id="paint12_linear_801_5057" x1="74.8454" y1="197.203" x2="74.8454" y2="193.118" gradientUnits="userSpaceOnUse">
<stop stop-color="white"/>
<stop offset="0.53" stop-color="#252324"/>
<stop offset="1" stop-color="white"/>
</linearGradient>
<radialGradient id="paint13_radial_801_5057" cx="0" cy="0" r="1" gradientUnits="userSpaceOnUse" gradientTransform="translate(77.8313 216.282) scale(5.01746 5.01747)">
<stop stop-color="white"/>
<stop offset="1" stop-color="#262424"/>
</radialGradient>
<radialGradient id="paint14_radial_801_5057" cx="0" cy="0" r="1" gradientUnits="userSpaceOnUse" gradientTransform="translate(68.593 185.428) rotate(180) scale(5.56221)">
<stop stop-color="white"/>
<stop offset="1" stop-color="#262424"/>
</radialGradient>
<linearGradient id="paint15_linear_801_5057" x1="107.258" y1="186.84" x2="67.3096" y2="197.302" gradientUnits="userSpaceOnUse">
<stop stop-color="#B1252B"/>
<stop offset="0.48" stop-color="#8A2225"/>
<stop offset="0.6" stop-color="#8D2225"/>
<stop offset="0.7" stop-color="#972327"/>
<stop offset="0.79" stop-color="#A92429"/>
<stop offset="0.83" stop-color="#B1252B"/>
<stop offset="0.93" stop-color="#832023"/>
<stop offset="0.95" stop-color="#801F22"/>
<stop offset="0.96" stop-color="#761E21"/>
<stop offset="0.98" stop-color="#661C1E"/>
<stop offset="0.99" stop-color="#501A1B"/>
<stop offset="1" stop-color="#2F1717"/>
</linearGradient>
<linearGradient id="paint16_linear_801_5057" x1="78.3455" y1="183.098" x2="99.4616" y2="200.814" gradientUnits="userSpaceOnUse">
<stop stop-color="#9E2429"/>
<stop offset="0.02" stop-color="#B8242A"/>
<stop offset="0.03" stop-color="#BC3031"/>
<stop offset="0.06" stop-color="#CB5445"/>
<stop offset="0.09" stop-color="#D36952"/>
<stop offset="0.11" stop-color="#D77257"/>
<stop offset="0.29" stop-color="#D24F42"/>
<stop offset="0.48" stop-color="#CC262A"/>
<stop offset="0.71" stop-color="#CC262A"/>
<stop offset="1" stop-color="#B8242A"/>
</linearGradient>
<radialGradient id="paint17_radial_801_5057" cx="0" cy="0" r="1" gradientUnits="userSpaceOnUse" gradientTransform="translate(68.4183 194.292) scale(38.2283 38.2282)">
<stop stop-color="#050706"/>
<stop offset="0.24" stop-color="white"/>
<stop offset="0.76" stop-color="white"/>
<stop offset="0.78" stop-color="#FAFAFA"/>
<stop offset="0.81" stop-color="#EBECEB"/>
<stop offset="0.85" stop-color="#D4D4D4"/>
<stop offset="0.88" stop-color="#B3B3B3"/>
<stop offset="0.92" stop-color="#888989"/>
<stop offset="0.95" stop-color="#555655"/>
<stop offset="0.99" stop-color="#181A19"/>
<stop offset="1" stop-color="#050706"/>
</radialGradient>
</defs>
</svg>
