<svg width="397" height="396" viewBox="0 0 397 396" fill="none" xmlns="http://www.w3.org/2000/svg">
<g filter="url(#filter0_b_801_5046)">
<circle cx="198.721" cy="197.735" r="197.735" fill="white" fill-opacity="0.62"/>
<circle cx="198.721" cy="197.735" r="197.235" stroke="white" stroke-opacity="0.25"/>
</g>
<path d="M62.5918 215.391C62.5918 217.69 62.0068 219.412 60.8486 220.556C59.6787 221.712 58.0525 222.278 55.935 222.278C53.6654 222.278 52.0042 221.654 50.9395 220.395C49.8866 219.135 49.3602 217.448 49.3602 215.31V168.516H37.1113V214.755C37.1113 216.951 37.4272 218.973 38.0472 220.845C38.6673 222.718 39.6968 224.336 41.1358 225.688C42.5631 227.051 44.4232 228.115 46.6928 228.889C48.9624 229.663 51.7819 230.056 55.1278 230.056C59.0236 230.056 62.0185 229.536 64.136 228.496C66.2418 227.456 67.7627 226.323 68.6752 225.087C69.5995 226.312 71.132 227.456 73.2963 228.496C75.4607 229.536 78.4907 230.056 82.3865 230.056C85.6271 230.056 88.3881 229.686 90.6577 228.935C92.9273 228.184 94.7757 227.144 96.2147 225.815C97.642 224.474 98.6949 222.868 99.3383 220.973C99.9935 219.077 100.309 217.008 100.309 214.766V168.516H88.2243V215.31C88.2243 217.39 87.6861 219.077 86.5981 220.36C85.5101 221.643 83.8371 222.278 81.5675 222.278C79.2979 222.278 77.742 221.701 76.5838 220.556C75.4256 219.412 74.8406 217.69 74.8406 215.391V168.516H62.5918V215.391ZM110.464 228.854H143.724V221.157H122.631V201.21H141.618V193.363H122.631V176.212H142.917V168.516H110.464V228.854ZM178.201 228.854H190.286V181.979C190.286 179.737 190.871 178.027 192.029 176.848C193.188 175.669 194.849 175.08 197.013 175.08C199.283 175.08 200.956 175.704 202.044 176.964C203.12 178.223 203.67 179.945 203.67 182.13V228.854H215.837V182.615C215.837 180.477 215.544 178.478 214.948 176.605C214.351 174.733 213.357 173.115 211.941 171.763C210.537 170.399 208.701 169.313 206.419 168.516C204.161 167.718 201.318 167.314 197.914 167.314C194.077 167.314 191.082 167.822 188.953 168.839C186.812 169.856 185.256 171.058 184.285 172.445C183.361 171.116 181.828 169.925 179.664 168.874C177.488 167.834 174.493 167.314 170.655 167.314C167.403 167.314 164.642 167.683 162.373 168.435C160.103 169.186 158.231 170.226 156.78 171.555C155.318 172.896 154.265 174.502 153.622 176.397C152.967 178.293 152.651 180.361 152.651 182.603V228.854H164.818V182.141C164.818 179.957 165.356 178.223 166.444 176.975C167.52 175.716 169.228 175.091 171.556 175.091C175.99 175.091 178.213 177.391 178.213 181.979V228.854H178.201ZM240.019 202.493L244.242 176.212H248.618L252.841 202.493H240.019ZM253.976 210.271L256.9 228.866H269.641L259.088 168.516H233.772L223.383 228.854H236.041L238.884 210.259H253.976V210.271ZM317.419 183.828C317.419 179.021 315.945 175.265 312.997 172.572C310.049 169.879 305.252 168.527 298.596 168.527H277.257V228.854H298.596C305.252 228.854 310.049 227.595 312.997 225.087C315.945 222.579 317.419 219.019 317.419 214.431V183.817V183.828ZM289.424 176.212H297.695C300.666 176.212 302.667 176.883 303.696 178.212C304.726 179.552 305.241 181.494 305.241 184.06V213.31C305.241 216.038 304.586 218.026 303.287 219.285C301.988 220.545 299.883 221.169 296.958 221.169H289.412V176.212H289.424ZM326.989 228.866H360.331V221.169H339.156V201.21H358.307V193.363H339.156V176.212H359.442V168.516H326.989V228.854V228.866Z" fill="#251E1C"/>
<defs>
<filter id="filter0_b_801_5046" x="-151.117" y="-152.104" width="699.676" height="699.676" filterUnits="userSpaceOnUse" color-interpolation-filters="sRGB">
<feFlood flood-opacity="0" result="BackgroundImageFix"/>
<feGaussianBlur in="BackgroundImage" stdDeviation="76.0518"/>
<feComposite in2="SourceAlpha" operator="in" result="effect1_backgroundBlur_801_5046"/>
<feBlend mode="normal" in="SourceGraphic" in2="effect1_backgroundBlur_801_5046" result="shape"/>
</filter>
</defs>
</svg>
